<?xml version="1.0" standalone="no"?>
<!DOCTYPE svg PUBLIC "-//W3C//DTD SVG 1.1//EN" "http://www.w3.org/Graphics/SVG/1.1/DTD/svg11.dtd" >
<svg xmlns="http://www.w3.org/2000/svg" xmlns:xlink="http://www.w3.org/1999/xlink" version="1.1">
<metadata>
Created by FontForge 20190801 at Thu May 25 10:01:27 2023
 By www-data
</metadata>
<defs>
<font id="SuperGround" horiz-adv-x="1393" >
  <font-face 
    font-family="SuperGround"
    font-weight="400"
    font-stretch="normal"
    units-per-em="1000"
    panose-1="0 0 0 0 0 0 0 0 0 0"
    ascent="800"
    descent="-200"
    x-height="700"
    cap-height="700"
    bbox="-70 -200 2467 1013"
    underline-thickness="50"
    underline-position="-125"
    unicode-range="U+000D-2212"
  />
<missing-glyph horiz-adv-x="250" 
 />
    <glyph glyph-name=".notdef" horiz-adv-x="250" 
 />
    <glyph glyph-name=".null" horiz-adv-x="0" 
 />
    <glyph glyph-name=".null" horiz-adv-x="0" 
 />
    <glyph glyph-name="uni000D" unicode="&#xd;" horiz-adv-x="250" 
 />
    <glyph glyph-name="space" unicode=" " horiz-adv-x="458" 
 />
    <glyph glyph-name="exclam" unicode="!" horiz-adv-x="250" 
d="M45 700h160l-15 -486h-130zM125 -4q-42 0 -63.5 26.5t-21.5 58.5t21.5 58.5t63.5 26.5t63.5 -26.5t21.5 -58.5t-21.5 -58.5t-63.5 -26.5z" />
    <glyph glyph-name="quotedbl" unicode="&#x22;" horiz-adv-x="388" 
d="M210 700h150l-25 -220h-100zM24 700h150l-25 -220h-100z" />
    <glyph glyph-name="numbersign" unicode="#" horiz-adv-x="737" 
d="M521 700h101l-120 -700h-101zM70 418v100h627v-100h-627zM256 700h101l-120 -700h-101zM40 192v100h627v-100h-627z" />
    <glyph glyph-name="dollar" unicode="$" horiz-adv-x="710" 
d="M415 416q48 -8 94 -22.5t82 -39.5t57.5 -62t21.5 -90t-22 -90t-59 -61t-85 -36.5t-100 -15.5q-78 -5 -161.5 5t-168.5 27l10 150q81 -18 164 -27.5t164 -3.5q12 1 26.5 3.5t28 8.5t22.5 16.5t9 26.5q0 17 -9 27.5t-22 17t-27 9.5t-25 5l-120 20q-48 8 -94 22.5t-82 39.5
t-57.5 62t-21.5 90t22 90t59 61t85 36.5t100 15.5q78 5 161.5 -5t168.5 -27l-10 -150q-81 18 -164 27.5t-164 3.5q-12 -1 -26.5 -3.5t-28 -8.5t-22.5 -16t-9 -27q0 -16 9 -27t22 -17.5t27.5 -9.5t24.5 -5zM305 803h100v-150h-100v150zM305 56h100v-150h-100v150z" />
    <glyph glyph-name="percent" unicode="%" horiz-adv-x="786" 
d="M514 700h112l-348 -700h-112zM41 548q0 51 22.5 84.5t55.5 50.5t72.5 17t72.5 -17t55.5 -50.5t22.5 -84.5v-42q0 -50 -22.5 -84t-55.5 -50.5t-72.5 -17t-72.5 16.5t-55.5 50.5t-22.5 84.5v42zM261 548q0 35 -22 53t-48 18t-48 -17.5t-22 -53.5v-42q0 -36 22 -53.5
t48 -17.5t48 18t22 53v42zM445 193q0 51 22.5 84.5t55.5 50.5t72.5 17t72.5 -17t55.5 -50.5t22.5 -84.5v-42q0 -50 -22.5 -84t-55.5 -51t-72.5 -16.5t-72.5 17t-55.5 50.5t-22.5 84v42zM665 193q0 35 -22 53t-48 18t-48 -17.5t-22 -53.5v-42q0 -36 22 -53.5t48 -17.5t48 18
t22 53v42z" />
    <glyph glyph-name="ampersand" unicode="&#x26;" horiz-adv-x="785" 
d="M461 433h150v-183h-150v183zM611 321v-115q0 -44 -14 -82t-39.5 -65.5t-62.5 -43t-82 -15.5v150q19 0 33.5 15t14.5 41v115h150zM655 0q-48 12 -84 39t-60.5 67t-37 90t-12.5 107h150q0 -73 35 -117t98 -65zM322 699q40 0 81 -5t79.5 -13t71.5 -18t57 -20l-10 -150
q-36 14 -67 24t-61 16.5t-60 10.5t-62 5q-22 1 -44 0t-39.5 -7t-29 -17.5t-13.5 -32.5q-2 -25 14 -42t42 -17h419v-130h-436q-34 0 -51.5 -24t-17.5 -52.5t17.5 -52.5t51.5 -24h149v-150h-149q-58 0 -101 20t-70.5 52.5t-40.5 74t-10.5 83.5t20 81.5t49.5 68.5
q-19 24 -29.5 55.5t-10.5 69.5q0 55 21.5 92.5t57 60t80.5 32t92 9.5z" />
    <glyph glyph-name="quotesingle" unicode="'" horiz-adv-x="200" 
d="M24 700h150l-25 -220h-100z" />
    <glyph glyph-name="parenleft" unicode="(" horiz-adv-x="374" 
d="M334 -71q-73 6 -128.5 43.5t-92 96t-55 131.5t-18.5 149t18.5 149t55 131.5t92 96t128.5 43.5v-150q-30 -6 -52.5 -31t-38 -62t-23 -83t-7.5 -94t7.5 -94t22.5 -83t37.5 -62t53.5 -31v-150z" />
    <glyph glyph-name="parenright" unicode=")" horiz-adv-x="374" 
d="M40 79q31 6 53.5 31t37.5 62t22.5 83t7.5 94t-7.5 94t-23 83t-38 62t-52.5 31v150q74 -6 129 -43.5t91.5 -96t55 -131.5t18.5 -149t-18.5 -149t-55 -131.5t-91.5 -96t-129 -43.5v150z" />
    <glyph glyph-name="asterisk" unicode="*" horiz-adv-x="415" 
d="M281 377l-73 114l-74 -114l-74 60l86 82l-106 40l42 84l90 -59l-13 117h97l-13 -117l90 59l42 -84l-106 -40l86 -82z" />
    <glyph glyph-name="plus" unicode="+" horiz-adv-x="380" 
d="M140 506h100v-300h-100v300zM40 306v100h300v-100h-300z" />
    <glyph glyph-name="comma" unicode="," horiz-adv-x="306" 
d="M266 165q0 -82 -27 -150.5t-73 -116.5l-126 49q29 33 42.5 92.5t13.5 125.5h170z" />
    <glyph glyph-name="hyphen" unicode="-" horiz-adv-x="330" 
d="M40 306v100h250v-100h-250z" />
    <glyph glyph-name="period" unicode="." horiz-adv-x="250" 
d="M125 -5q-42 0 -63.5 26.5t-21.5 58.5t21.5 58.5t63.5 26.5t63.5 -26.5t21.5 -58.5t-21.5 -58.5t-63.5 -26.5z" />
    <glyph glyph-name="slash" unicode="/" horiz-adv-x="592" 
d="M440 750h112l-400 -805h-112z" />
    <glyph glyph-name="zero" unicode="0" horiz-adv-x="744" 
d="M40 436q0 59 23.5 108.5t66.5 85t104.5 55.5t137.5 20t137.5 -20t104.5 -55.5t66.5 -85t23.5 -108.5v-173q0 -59 -23.5 -108.5t-66.5 -85t-104.5 -55.5t-137.5 -20t-137.5 20t-104.5 55.5t-66.5 85t-23.5 108.5v173zM534 436q0 23 -9.5 44.5t-29 38t-50.5 26.5t-73 10
t-73 -10t-50.5 -26.5t-29 -38t-9.5 -44.5v-173q0 -23 9.5 -44.5t29 -38t50.5 -26.5t73 -10t73 10t50.5 26.5t29 38t9.5 44.5v173z" />
    <glyph glyph-name="one" unicode="1" horiz-adv-x="457" 
d="M40 550v150h207v-150h-207zM247 700h170v-700h-170v700z" />
    <glyph glyph-name="two" unicode="2" horiz-adv-x="710" 
d="M415 426q11 2 25 6t27 11.5t22 19.5t9 28q0 17 -9.5 28t-24 17.5t-33 10t-36.5 4.5q-34 3 -77 0t-89 -10.5t-92 -19t-87 -27.5l-10 150q42 15 89.5 26.5t96.5 19t96 10.5t88 0q50 -3 96.5 -15.5t83 -37t58.5 -62.5t22 -91t-21.5 -91t-57.5 -64t-82 -41.5t-94 -23.5
l-120 -20q-10 -2 -24.5 -5t-27.5 -9.5t-22 -17t-9 -27.5v-45h458v-150l-630 -1v193q0 53 21.5 90t57.5 62t82 39.5t94 22.5z" />
    <glyph glyph-name="three" unicode="3" horiz-adv-x="710" 
d="M395 426q44 0 73.5 15.5t29.5 47.5q0 17 -9.5 29.5t-25.5 20.5t-36.5 12.5t-43.5 5.5q-29 2 -69.5 1t-85.5 -6.5t-91 -14.5t-87 -23l-10 150q42 13 89.5 22t95 14t92 6.5t80.5 -0.5q54 -3 103.5 -17t87 -39.5t60 -65t22.5 -93.5q0 -52 -20.5 -92t-57 -68t-87 -42.5
t-110.5 -14.5h-255v152h255zM215 274v152h180q60 0 110.5 -14.5t87 -42t57 -68t20.5 -92.5q0 -54 -22.5 -93.5t-60 -65t-87 -39.5t-103.5 -17q-36 -2 -80.5 -0.5t-92 6.5t-95 14t-89.5 22l10 150q41 -13 87 -22.5t91 -14.5t85.5 -6.5t69.5 0.5q23 2 43.5 6t36.5 12
t25.5 20.5t9.5 29.5q0 32 -29.5 47.5t-73.5 15.5h-180z" />
    <glyph glyph-name="four" unicode="4" horiz-adv-x="710" 
d="M40 180v150h487v-150h-487zM396 700h208l-356 -370h-208zM500 700h170v-700h-170v700z" />
    <glyph glyph-name="five" unicode="5" horiz-adv-x="706" 
d="M186 550v150h420v-150h-420zM411 446q49 0 95 -14t81.5 -41.5t57 -69.5t21.5 -99q0 -61 -22 -102t-59 -67t-85 -38.5t-100 -15.5q-39 -2 -84 -0.5t-92.5 6t-94.5 11.5t-89 15l10 150q41 -9 86.5 -16t92.5 -11.5t93 -5.5t86 2q12 1 26.5 3.5t28 10.5t22.5 22.5t9 38.5
q0 20 -9 33.5t-22 21.5t-27 11t-25 3h-292l-65 65l34 341h162l-26 -254h187z" />
    <glyph glyph-name="six" unicode="6" horiz-adv-x="744" 
d="M704 223q0 -59 -23.5 -102t-66.5 -71.5t-104.5 -42t-137.5 -13.5t-137.5 13.5t-104.5 42t-66.5 71.5t-23.5 102h170q0 -46 38.5 -62.5t123.5 -16.5t123.5 16.5t38.5 62.5h170zM534 223q0 46 -38.5 62.5t-123.5 16.5t-123.5 -16.5t-38.5 -62.5h-170q0 59 23.5 102
t66.5 71.5t104.5 42t137.5 13.5t137.5 -13.5t104.5 -42t66.5 -71.5t23.5 -102h-170zM40 474q0 57 22.5 99t61 70t90.5 43t110 19q32 2 74 1.5t88.5 -4t94 -10.5t89.5 -18l-10 -150q-40 12 -86.5 19t-91.5 10.5t-85.5 3.5t-70.5 -2q-22 -1 -43 -6.5t-37 -15t-26 -24.5
t-10 -35v-251h-170v251z" />
    <glyph glyph-name="seven" unicode="7" horiz-adv-x="666" 
d="M437 550h189l-267 -550h-189zM40 550v150h586v-150h-586z" />
    <glyph glyph-name="eight" unicode="8" horiz-adv-x="744" 
d="M534 212q0 38 -42 53.5t-120 15.5t-120 -15.5t-42 -53.5h-170q0 55 24.5 93t69 61.5t105.5 34t133 10.5t133 -10.5t105.5 -34t69 -61.5t24.5 -93h-170zM704 488q0 -55 -24.5 -93t-69 -61.5t-105.5 -34t-133 -10.5t-133 10.5t-105.5 34t-69 61.5t-24.5 93h170
q0 -38 42 -53.5t120 -15.5t120 15.5t42 53.5h170zM704 212q0 -55 -23.5 -96t-66.5 -68.5t-104.5 -41t-137.5 -13.5t-137.5 13.5t-104.5 41t-66.5 68.5t-23.5 96h170q0 -38 38.5 -53.5t123.5 -15.5t123.5 15.5t38.5 53.5h170zM534 488q0 38 -38.5 53.5t-123.5 15.5
t-123.5 -15.5t-38.5 -53.5h-170q0 55 23.5 96t66.5 68.5t104.5 41t137.5 13.5t137.5 -13.5t104.5 -41t66.5 -68.5t23.5 -96h-170z" />
    <glyph glyph-name="nine" unicode="9" horiz-adv-x="744" 
d="M704 227q0 -57 -22.5 -99t-61 -70t-90 -43t-110.5 -19q-32 -2 -74 -1.5t-88.5 4t-94 10.5t-89.5 18l10 150q41 -12 87 -19t91 -10.5t85.5 -3.5t70.5 2q22 2 43 7t37 15t26 24.5t10 34.5v42q-71 -20 -162 -20q-76 0 -137.5 13.5t-104.5 42t-66.5 71.5t-23.5 102t23.5 102
t66.5 71.5t104.5 42t137.5 13.5t137.5 -13.5t104.5 -42t66.5 -71.5t23.5 -102v-251zM210 478q0 -46 38.5 -62.5t123.5 -16.5t123.5 16.5t38.5 62.5t-38.5 62.5t-123.5 16.5t-123.5 -16.5t-38.5 -62.5z" />
    <glyph glyph-name="colon" unicode=":" horiz-adv-x="250" 
d="M125 330q-42 0 -63.5 26.5t-21.5 58.5t21.5 58.5t63.5 26.5t63.5 -26.5t21.5 -58.5t-21.5 -58.5t-63.5 -26.5zM125 -5q-42 0 -63.5 26.5t-21.5 58.5t21.5 58.5t63.5 26.5t63.5 -26.5t21.5 -58.5t-21.5 -58.5t-63.5 -26.5z" />
    <glyph glyph-name="semicolon" unicode=";" horiz-adv-x="306" 
d="M176 330q-42 0 -63.5 26.5t-21.5 58.5t21.5 58.5t63.5 26.5t63.5 -26.5t21.5 -58.5t-21.5 -58.5t-63.5 -26.5zM266 165q0 -82 -27 -150.5t-73 -116.5l-126 49q29 33 42.5 92.5t13.5 125.5h170z" />
    <glyph glyph-name="less" unicode="&#x3c;" horiz-adv-x="336" 
d="M296 590v-123l-256 -183v123zM40 284v123l256 -183v-123z" />
    <glyph glyph-name="equal" unicode="=" horiz-adv-x="330" 
d="M40 213v100h250v-100h-250zM40 386v100h250v-100h-250z" />
    <glyph glyph-name="greater" unicode="&#x3e;" horiz-adv-x="336" 
d="M40 224l170 122l-170 121v123l256 -183v-123l-256 -183v123z" />
    <glyph glyph-name="question" unicode="?" horiz-adv-x="700" 
d="M225 215q0 66 22 102t64 60q29 17 62 29t60.5 24.5t46 27.5t18.5 36q0 15 -9.5 25.5t-24 17t-33 10t-36.5 4.5q-34 3 -77 0t-89 -10.5t-92 -19t-87 -27.5l-10 150q42 15 89.5 26.5t96 19t95.5 10.5t87 0q50 -3 96 -15.5t80.5 -36.5t55 -60t20.5 -86q0 -42 -15 -74
t-40.5 -56t-59 -40.5t-69.5 -28.5q-40 -14 -65.5 -32t-25.5 -56h-160zM311 -5q-42 0 -63.5 26.5t-21.5 58.5t21.5 58.5t63.5 26.5t63.5 -26.5t21.5 -58.5t-21.5 -58.5t-63.5 -26.5z" />
    <glyph glyph-name="at" unicode="@" horiz-adv-x="810" 
d="M214 338q0 71 30 109.5t75 50.5t98 1t99 -38l-1 -100q-18 12 -51 24t-65 14t-56 -10.5t-24 -50.5q0 -25 11 -38.5t29 -19t40 -4t44 7.5t41 14.5t31 16.5l1 -100q-46 -27 -99 -38t-98 1t-75 50.5t-30 109.5zM456 526h100v-282h-100v282zM482 -24q-20 -4 -39.5 -5.5
t-39.5 -1.5q-81 0 -147.5 27.5t-114.5 76.5t-74.5 117t-26.5 148t26.5 148t74.5 117t115.5 76.5t149.5 27.5q83 0 150 -28t114.5 -78.5t73.5 -119.5t26 -150q0 -38 -7.5 -82t-27.5 -81t-53.5 -61.5t-86.5 -24.5q-39 0 -65.5 13.5t-43 36t-23.5 51.5t-7 61h100q0 -7 1 -17.5
t5 -19.5t12 -15.5t22 -6.5q24 0 37.5 19.5t20 45.5t7.5 51.5t1 36.5q0 59 -18.5 108t-52.5 85t-81.5 56t-105.5 20t-106 -20.5t-82 -57t-52.5 -86t-18.5 -106.5t18.5 -106t52.5 -85t81 -56.5t105 -20.5q15 0 28.5 1.5t27.5 3.5z" />
    <glyph glyph-name="A" unicode="A" horiz-adv-x="803" 
d="M10 0l266 700h251l266 -700h-182l-54 143h-311l-54 -143h-182zM500 293l-98 258l-99 -258h197z" />
    <glyph glyph-name="B" unicode="B" horiz-adv-x="755" 
d="M50 0v700h424q44 0 82.5 -14t67 -39.5t44.5 -62.5t16 -82q0 -36 -10.5 -67t-29.5 -55q33 -29 50 -68.5t19.5 -81.5t-10 -83.5t-40.5 -74t-71 -52.5t-101 -20h-441zM220 550v-117h254q26 0 41 17t15 42q0 24 -15 41t-41 17h-254zM491 150q35 0 52 24t17 52.5t-17 52.5
t-52 24h-271v-153h271z" />
    <glyph glyph-name="C" unicode="C" horiz-adv-x="790" 
d="M740 172l10 -150q-72 -12 -146.5 -19t-147.5 -7q-88 0 -165.5 19t-135.5 61t-91.5 109.5t-33.5 164.5t33.5 164.5t91.5 109.5t135.5 61t165.5 19q73 0 147.5 -7t146.5 -19l-10 -150q-69 12 -140 19t-141 7q-54 0 -100.5 -9t-81 -32t-54.5 -62.5t-20 -100.5t20 -100.5
t54.5 -62.5t81 -32t100.5 -9q70 0 141 7t140 19z" />
    <glyph glyph-name="D" unicode="D" horiz-adv-x="775" 
d="M50 0v700h366q81 0 143 -25t103 -71t62 -110.5t21 -143.5q0 -82 -21 -147t-62 -110t-103 -69t-143 -24h-366zM220 550v-400h196q41 0 70.5 17.5t48.5 45.5t28 64t9 73t-9 73t-28 64t-48.5 45.5t-70.5 17.5h-196z" />
    <glyph glyph-name="E" unicode="E" horiz-adv-x="695" 
d="M220 550v-117h371v-140h-371v-143h435v-150h-605v700h604v-150h-434z" />
    <glyph glyph-name="F" unicode="F" horiz-adv-x="684" 
d="M220 550v-177h371v-140h-371v-233h-170v700h604v-150h-434z" />
    <glyph glyph-name="G" unicode="G" horiz-adv-x="823" 
d="M740 528q-69 12 -140 19t-141 7q-54 0 -100.5 -9t-81 -32t-54.5 -62.5t-20 -100.5t20 -100.5t54.5 -62.5t81 -32t100.5 -9q38 0 77 2t77 6v196h170v-319q-45 -10 -85 -17t-79 -11t-79 -5.5t-84 -1.5q-88 0 -165.5 19t-135.5 61t-91.5 109.5t-33.5 164.5t33.5 164.5
t91.5 109.5t135.5 61t165.5 19q73 0 147.5 -7t146.5 -19z" />
    <glyph glyph-name="H" unicode="H" horiz-adv-x="764" 
d="M50 700h170v-257h324v257h170v-700h-170v293h-324v-293h-170v700z" />
    <glyph glyph-name="I" unicode="I" horiz-adv-x="270" 
d="M50 700h170v-700h-170v700z" />
    <glyph glyph-name="J" unicode="J" horiz-adv-x="739" 
d="M200 550v150h494v-424q0 -81 -28 -135.5t-74.5 -87t-106 -46.5t-123.5 -14t-123.5 14t-106 46.5t-74.5 87t-28 135.5h170q0 -45 14 -71t37 -40t52 -18t59 -4t59 4t52 18t37 40t14 71v274h-324z" />
    <glyph glyph-name="K" unicode="K" horiz-adv-x="780" 
d="M220 263v-263h-170v700h170v-287h176l130 287h187l-139 -307q28 -13 48 -33.5t35 -47.5t26.5 -60t21.5 -72l50 -180h-176l-50 175q-4 14 -8 29.5t-11 28.5t-17.5 21.5t-27.5 8.5h-245z" />
    <glyph glyph-name="L" unicode="L" horiz-adv-x="709" 
d="M50 700h170v-550h454v-150h-624v700z" />
    <glyph glyph-name="M" unicode="M" horiz-adv-x="943" 
d="M50 700h230l192 -391l191 391h230v-700h-170v459l-161 -329h-181l-161 329v-459h-170v700z" />
    <glyph glyph-name="N" unicode="N" horiz-adv-x="795" 
d="M50 700h202l323 -465v465h170v-700h-202l-323 465v-465h-170v700z" />
    <glyph glyph-name="O" unicode="O" horiz-adv-x="846" 
d="M423 146q60 0 102 15t68 42t38 64.5t12 83.5t-12 83.5t-38 64t-68 41t-102 14.5t-102 -15t-68 -42t-38 -64.5t-12 -83.5t12 -83.5t38 -64t68 -41t102 -14.5zM423 -4q-97 0 -171 25.5t-123 72t-74 112t-25 144.5t25 144.5t74 112t123 72t171 25.5q98 0 171.5 -25.5
t122.5 -72t74 -112t25 -144.5t-25 -144.5t-74 -112t-122.5 -72t-171.5 -25.5z" />
    <glyph glyph-name="P" unicode="P" horiz-adv-x="744" 
d="M220 233v-233h-170v700h427q118 0 177.5 -60.5t59.5 -172.5t-59.5 -173t-177.5 -61h-257zM477 373q17 0 29.5 8.5t20 21.5t11 28.5t3.5 30.5q0 14 -3.5 29.5t-11 28.5t-20 21.5t-29.5 8.5h-257v-177h257z" />
    <glyph glyph-name="Q" unicode="Q" horiz-adv-x="846" 
d="M423 -4q-97 0 -171 25.5t-123 72t-74 112t-25 144.5t25 144.5t74 112t123 72t171 25.5q98 0 171.5 -25.5t122.5 -72t74 -112t25 -144.5q0 -109 -46.5 -191t-140.5 -124l95 -95l-120 -120l-175 176h-6zM423 146q60 0 102 15t68 42t38 64.5t12 83.5t-12 83.5t-38 64t-68 41
t-102 14.5t-102 -15t-68 -42t-38 -64.5t-12 -83.5t12 -83.5t38 -64t68 -41t102 -14.5z" />
    <glyph glyph-name="R" unicode="R" horiz-adv-x="754" 
d="M388 233h-168v-233h-170v700h427q118 0 177.5 -60.5t59.5 -172.5q0 -86 -35.5 -142.5t-106.5 -78.5l126 -246h-191zM477 373q17 0 29.5 8.5t20 21.5t11 28.5t3.5 30.5q0 14 -3.5 29.5t-11 28.5t-20 21.5t-29.5 8.5h-257v-177h257z" />
    <glyph glyph-name="S" unicode="S" horiz-adv-x="690" 
d="M405 416q48 -8 94 -22.5t82 -39.5t57.5 -62t21.5 -90t-22 -90t-59 -61t-85 -36.5t-100 -15.5q-78 -5 -161.5 5t-168.5 27l10 150q81 -18 164 -27.5t164 -3.5q12 1 26.5 3.5t28 8.5t22.5 16.5t9 26.5q0 17 -9 27.5t-22 17t-27 9.5t-25 5l-120 20q-48 8 -94 22.5t-82 39.5
t-57.5 62t-21.5 90t22 90t59 61t85 36.5t100 15.5q78 5 161.5 -5t168.5 -27l-10 -150q-81 18 -164 27.5t-164 3.5q-12 -1 -26.5 -3.5t-28 -8.5t-22.5 -16t-9 -27q0 -16 9 -27t22 -17.5t27.5 -9.5t24.5 -5z" />
    <glyph glyph-name="T" unicode="T" horiz-adv-x="764" 
d="M467 550v-550h-170v550h-267v150h704v-150h-267z" />
    <glyph glyph-name="U" unicode="U" horiz-adv-x="754" 
d="M539 700h170v-424q0 -81 -28 -135.5t-74.5 -87t-106 -46.5t-123.5 -14t-123.5 14t-106 46.5t-74.5 87t-28 135.5v424h170v-424q0 -45 14 -71t37 -40t52 -18t59 -4t59 4t52 18t37 40t14 71v424z" />
    <glyph glyph-name="V" unicode="V" horiz-adv-x="781" 
d="M391 154l199 546h181l-256 -700h-249l-256 700h181z" />
    <glyph glyph-name="W" unicode="W" horiz-adv-x="1099" 
d="M321 159l136 541h185l136 -541l136 541h175l-176 -700h-270l-93 372l-94 -372h-270l-176 700h175z" />
    <glyph glyph-name="X" unicode="X" horiz-adv-x="763" 
d="M397 470l161 230h195l-255 -364l255 -336h-213l-174 230l-161 -230h-195l255 364l-255 336h213z" />
    <glyph glyph-name="Y" unicode="Y" horiz-adv-x="806" 
d="M318 235l-308 465h192l201 -304l201 304h192l-308 -465v-235h-170v235z" />
    <glyph glyph-name="Z" unicode="Z" horiz-adv-x="714" 
d="M279 150h395v-150h-634v150l395 400h-395v150h634v-150z" />
    <glyph glyph-name="bracketleft" unicode="[" horiz-adv-x="344" 
d="M97 -70v150h207v-150h-207zM40 770h170v-840h-170v840zM97 620v150h207v-150h-207z" />
    <glyph glyph-name="backslash" unicode="\" horiz-adv-x="540" 
d="M500 0h-112l-348 700h112z" />
    <glyph glyph-name="bracketright" unicode="]" horiz-adv-x="344" 
d="M40 -70v150h94v540h-94v150h264v-840h-264z" />
    <glyph glyph-name="asciicircum" unicode="^" horiz-adv-x="535" 
d="M389 444l-122 170l-121 -170h-123l183 256h123l183 -256h-123z" />
    <glyph glyph-name="underscore" unicode="_" horiz-adv-x="420" 
d="M40 -100v100h340v-100h-340z" />
    <glyph glyph-name="grave" unicode="`" horiz-adv-x="371" 
d="M25 672l42 91l282 -131l-42 -91z" />
    <glyph glyph-name="a" unicode="a" horiz-adv-x="1323" 
d="M10 0l266 700h771l266 -700h-182l-54 143h-831l-54 -143h-182zM1020 293l-98 257h-521l-98 -257h717z" />
    <glyph glyph-name="b" unicode="b" horiz-adv-x="1394" 
d="M50 700h1063q44 0 82.5 -14t67 -39.5t44.5 -62.5t16 -82q0 -36 -10.5 -67t-29.5 -55q33 -29 50 -68.5t19.5 -81.5t-10.5 -83.5t-40.5 -74t-70.5 -52.5t-101 -20h-1080v700zM1113 433q26 0 41 17t15 42q0 24 -15 41t-41 17h-893v-117h893zM1130 150q35 0 52 24t17 52.5
t-17 52.5t-52 24h-910v-153h910z" />
    <glyph glyph-name="c" unicode="c" horiz-adv-x="1383" 
d="M203 350q0 -61 27 -100t76.5 -61.5t118.5 -33t152 -14.5q184 -9 378.5 -1.5t377.5 32.5l10 -150q-183 -23 -376.5 -32t-378.5 0q-126 6 -229 26.5t-176 62.5t-113 108t-40 163t40 163t113 108t176 62.5t229 26.5q185 9 378.5 0t376.5 -32l-10 -150q-183 25 -377.5 32.5
t-378.5 -1.5q-83 -4 -152 -14.5t-118.5 -33t-76.5 -61.5t-27 -100z" />
    <glyph glyph-name="d" unicode="d" horiz-adv-x="1383" 
d="M50 700h974q81 0 143 -25t103 -71t62 -110.5t21 -143.5q0 -82 -21 -147t-62 -110t-103 -69t-143 -24h-974v700zM1024 150q41 0 70.5 17.5t48.5 45.5t28 64t9 73t-9 73t-28 64t-48.5 45.5t-70.5 17.5h-804v-400h804z" />
    <glyph glyph-name="e" unicode="e" 
d="M50 700h1302v-150h-1132v-117h987v-140h-987v-143h1133v-150h-1303v700z" />
    <glyph glyph-name="f" unicode="f" horiz-adv-x="1391" 
d="M50 700h1311v-150h-1141v-177h1018v-140h-1018v-233h-170v700z" />
    <glyph glyph-name="g" unicode="g" horiz-adv-x="1383" 
d="M203 350q0 -61 27 -100t76.5 -61.5t118.5 -33t152 -14.5q184 -9 378.5 -1.5t377.5 32.5l10 -150q-183 -23 -376.5 -32t-378.5 0q-126 6 -229 26.5t-176 62.5t-113 108t-40 163t40 163t113 108t176 62.5t229 26.5q185 9 378.5 0t376.5 -32l-10 -150q-183 25 -377.5 32.5
t-378.5 -1.5q-83 -4 -152 -14.5t-118.5 -33t-76.5 -61.5t-27 -100zM1173 372h170v-350h-170v350z" />
    <glyph glyph-name="h" unicode="h" horiz-adv-x="1403" 
d="M194 293v150h1028v-150h-1028zM50 700h170v-700h-170v700zM1183 700h170v-700h-170v700z" />
    <glyph glyph-name="i" unicode="i" horiz-adv-x="270" 
d="M50 700h170v-700h-170v700z" />
    <glyph glyph-name="j" unicode="j" horiz-adv-x="1383" 
d="M362 -7v150h639v-150h-639zM1333 276q0 -81 -28 -135.5t-74.5 -87t-106 -46.5t-123.5 -14v150q30 0 59 4t52 18t37 40t14 71h170zM1163 700h170v-424h-170v424zM362 550v150h801v-150h-801zM200 276q0 -45 14 -71t37 -40t52 -18t59 -4v-150q-64 0 -123.5 14t-106 46.5
t-74.5 87t-28 135.5h170z" />
    <glyph glyph-name="k" unicode="k" horiz-adv-x="1378" 
d="M185 263v150h878v-150h-878zM50 700h170v-700h-170v700zM1147 338h-187l164 362h187zM1127 175q-4 14 -8 29.5t-11 28.5t-17.5 21.5t-27.5 8.5v150q61 0 100.5 -16.5t66 -47t42.5 -73.5t31 -96l50 -180h-176z" />
    <glyph glyph-name="l" unicode="l" horiz-adv-x="1388" 
d="M50 700h170v-700h-170v700zM174 0v150h1179v-150h-1179z" />
    <glyph glyph-name="m" unicode="m" horiz-adv-x="1404" 
d="M50 700h170v-700h-170v700zM1184 700h170v-700h-170v700zM1093 700h211l-491 -570h-211zM802 130h-211l-491 570h211z" />
    <glyph glyph-name="n" unicode="n" horiz-adv-x="1402" 
d="M50 700h170v-700h-170v700zM1182 700h170v-700h-170v700zM1294 0h-157l-1008 594v106h136l1029 -607v-93z" />
    <glyph glyph-name="o" unicode="o" horiz-adv-x="1371" 
d="M203 350q0 -52 21.5 -88t57.5 -59.5t84 -37t102 -19.5t110 -7.5t108 -1.5t108 1.5t110 7.5t102 19.5t84 37t57.5 59.5t21.5 88t-21.5 88t-57.5 59.5t-84 37t-102 19.5t-110 7.5t-108 1.5t-108 -1.5t-110 -7.5t-102 -19.5t-84 -37t-57.5 -59.5t-21.5 -88zM30 350
q0 82 28 140.5t75.5 99t112 64.5t137 37.5t150.5 17.5t153 4t153 -4t150.5 -17.5t137 -37.5t112 -64.5t75.5 -99t28 -140.5t-28 -140.5t-75.5 -99t-112 -64.5t-137 -37.5t-150.5 -17.5t-153 -4t-153 4t-150.5 17.5t-137 37.5t-112 64.5t-75.5 99t-28 140.5z" />
    <glyph glyph-name="p" unicode="p" horiz-adv-x="1383" 
d="M1116 373q17 0 29.5 8.5t20 21.5t11 28.5t3.5 30.5q0 14 -3.5 29.5t-11 28.5t-20 21.5t-29.5 8.5v150q118 0 177.5 -60.5t59.5 -172.5t-59.5 -173t-177.5 -61v140zM220 233v140h896v-140h-896zM220 550v150h896v-150h-896zM50 700h170v-700h-170v700z" />
    <glyph glyph-name="q" unicode="q" horiz-adv-x="1363" 
d="M1004 150q41 0 70.5 17.5t48.5 45.5t28 64t9 73t-9 73t-28 64t-48.5 45.5t-70.5 17.5v150q81 0 143 -25t103 -71t62 -110.5t21 -143.5q0 -82 -21 -147t-62 -110t-103 -69t-143 -24v150zM359 550v150h645v-150h-645zM359 0v150h645v-150h-645zM359 0q-81 0 -143 24
t-103 69t-62 110t-21 147q0 79 21 143.5t62 110.5t103 71t143 25v-150q-41 0 -70.5 -17.5t-48.5 -45.5t-28 -64t-9 -73t9 -73t28 -64t48.5 -45.5t70.5 -17.5v-150zM952 29l120 120l208 -209l-120 -120z" />
    <glyph glyph-name="r" unicode="r" 
d="M1116 373q17 0 29.5 8.5t20 21.5t11 28.5t3.5 30.5q0 14 -3.5 29.5t-11 28.5t-20 21.5t-29.5 8.5h-896v-177h896zM220 233v-233h-170v700h1066q118 0 177.5 -60.5t59.5 -172.5t-59.5 -173t-177.5 -61h-896zM982 333h191l170 -333h-191z" />
    <glyph glyph-name="s" unicode="s" horiz-adv-x="1329" 
d="M850 143q56 2 105 4t85.5 8t58 18.5t21.5 36.5q0 18 -14 28.5t-49.5 17t-95.5 9.5t-152 6q-25 1 -63.5 2t-77.5 2t-73 2t-50 1q-135 4 -232.5 15.5t-160 35t-92.5 61.5t-30 95q0 56 28 95.5t86.5 66.5t148.5 41.5t215 19.5q84 3 180.5 2t199 -7t207.5 -16.5t204 -27.5
l-10 -151q-184 32 -390 45t-420 4q-55 -2 -104.5 -4t-86 -8t-58 -18.5t-21.5 -36.5q0 -18 14 -28.5t49.5 -17t95.5 -9.5t152 -6q26 -1 64 -2t77 -2t73 -2t50 -1q135 -4 232.5 -15.5t160 -35t92.5 -61.5t30 -95q0 -55 -28 -95t-86.5 -67t-148.5 -41.5t-215 -19.5
q-84 -3 -180.5 -2t-199 7t-207.5 17t-204 27l10 151q184 -32 390 -45t420 -4z" />
    <glyph glyph-name="t" unicode="t" horiz-adv-x="1363" 
d="M597 550v150h736v-150h-736zM597 700h170v-700h-170v700zM30 550v150h736v-150h-736z" />
    <glyph glyph-name="u" unicode="u" 
d="M1178 700h170v-424h-170v424zM377 -7v150h639v-150h-639zM1016 143q30 0 59 4t52 18t37 40t14 71h170q0 -81 -28 -135.5t-74.5 -87t-106 -46.5t-123.5 -14v150zM45 700h170v-424h-170v424zM377 -7q-64 0 -123.5 14t-106 46.5t-74.5 87t-28 135.5h170q0 -45 14 -71t37 -40
t52 -18t59 -4v-150z" />
    <glyph glyph-name="v" unicode="v" horiz-adv-x="1323" 
d="M780 0h-214l533 700h214zM10 700h214l533 -700h-214z" />
    <glyph glyph-name="w" unicode="w" horiz-adv-x="1415" 
d="M10 700h183l273 -700h-183zM1132 0h-183l273 700h183zM626 700h183l273 -700h-183zM516 0h-183l273 700h183z" />
    <glyph glyph-name="x" unicode="x" horiz-adv-x="1377" 
d="M1078 700h281l-584 -444l-125 109zM1367 0h-307l-1050 700h307zM299 0h-281l584 444l125 -109z" />
    <glyph glyph-name="y" unicode="y" horiz-adv-x="1358" 
d="M1067 700h281l-584 -444l-125 109zM719 365l-125 -109l-584 444h281zM594 365h170v-365h-170v365z" />
    <glyph glyph-name="z" unicode="z" horiz-adv-x="1384" 
d="M40 550v150h1303v-150h-1303zM928 550h415l-888 -400h-415zM40 0v150h1304v-150h-1304z" />
    <glyph glyph-name="braceleft" unicode="{" horiz-adv-x="414" 
d="M190 349q50 -13 76 -49t27 -111q0 -28 3 -49t11.5 -35.5t24.5 -21.5t42 -7v-147h-56q-48 0 -84.5 15t-61 41.5t-37 63.5t-12.5 82q0 27 -2.5 53t-11.5 46t-25.5 32t-43.5 12v150q27 0 43.5 12t25.5 32t11.5 46t2.5 53q0 45 12.5 82t37 63.5t61 41.5t84.5 15h56v-147
q-26 0 -42 -7t-24.5 -21.5t-11.5 -35.5t-3 -49q0 -37 -7 -64.5t-20 -46.5t-32 -30.5t-44 -18.5z" />
    <glyph glyph-name="bar" unicode="|" horiz-adv-x="180" 
d="M40 700h100v-700h-100v700z" />
    <glyph glyph-name="braceright" unicode="}" horiz-adv-x="414" 
d="M224 349q-25 7 -44 18.5t-32 30.5t-20 46.5t-7 64.5q0 28 -3 49t-11.5 35.5t-24.5 21.5t-42 7v147h56q48 0 84.5 -15t61 -41.5t37 -63.5t12.5 -82q0 -27 2.5 -53t11.5 -46t25.5 -32t43.5 -12v-150q-27 0 -43.5 -12t-25.5 -32t-11.5 -46t-2.5 -53q0 -45 -12.5 -82
t-37 -63.5t-61 -41.5t-84.5 -15h-56v147q26 0 42 7t24.5 21.5t11.5 35.5t3 49q1 75 27.5 111t75.5 49z" />
    <glyph glyph-name="asciitilde" unicode="~" horiz-adv-x="436" 
d="M25 371q23 28 54 36.5t65 7t69.5 -9t67.5 -12t57.5 -1.5t40.5 22l30 -81q-23 -28 -54 -36.5t-65 -7t-69.5 9t-67.5 12t-57.5 1.5t-40.5 -22z" />
    <glyph glyph-name="exclamdown" unicode="&#xa1;" horiz-adv-x="250" 
d="M60 482h130l15 -486h-160zM125 700q42 0 63.5 -26.5t21.5 -58.5t-21.5 -58.5t-63.5 -26.5t-63.5 26.5t-21.5 58.5t21.5 58.5t63.5 26.5z" />
    <glyph glyph-name="cent" unicode="&#xa2;" horiz-adv-x="696" 
d="M366 803h100v-150h-100v150zM366 57h100v-150h-100v150zM40 350q0 97 33.5 164.5t91.5 109.5t135.5 61t165.5 19q48 0 95 -3t95 -8l-12 -150q-44 5 -88 8t-87 3q-54 0 -100.5 -9t-81 -32t-54.5 -62.5t-20 -100.5t20 -100.5t54.5 -62.5t81 -32t100.5 -9q43 0 87 3t88 8
l12 -150q-48 -5 -95 -8t-95 -3q-88 0 -165.5 19t-135.5 61t-91.5 109.5t-33.5 164.5z" />
    <glyph glyph-name="sterling" unicode="&#xa3;" horiz-adv-x="635" 
d="M595 -1l-535 1v150h535v-151zM230 150h-170q28 33 38 70.5t10.5 79t-3.5 86t-4 91.5q0 62 24 105.5t62.5 70.5t86.5 39t96 12q51 0 110 -8t115 -23l-27 -145q-45 11 -90 18t-85 7q-26 0 -49 -5.5t-40 -18t-26.5 -33t-9.5 -51.5q0 -44 4.5 -83.5t4.5 -75.5t-9.5 -69.5
t-37.5 -66.5zM40 300v100h487v-100h-487z" />
    <glyph glyph-name="currency" unicode="&#xa4;" horiz-adv-x="690" 
d="M345 76q-63 0 -110.5 21.5t-79 56.5t-47.5 79.5t-16 91t16 91t47.5 79.5t79 56.5t110.5 21.5t110.5 -21.5t79 -56.5t47.5 -79.5t16 -91t-16 -91t-47.5 -79.5t-79 -56.5t-110.5 -21.5zM345 176q49 0 81.5 22t48.5 55t16 71.5t-16 71.5t-48.5 55t-81.5 22t-81.5 -22
t-48.5 -55t-16 -71.5t16 -71.5t48.5 -55t81.5 -22zM40 537l71 71l134 -135l-70 -70zM650 113l-71 -71l-134 134l71 71zM515 403l-70 70l134 135l71 -71zM175 246l70 -70l-134 -135l-71 71z" />
    <glyph glyph-name="yen" unicode="&#xa5;" horiz-adv-x="866" 
d="M348 268h170v-268h-170v268zM518 268l-134 -87l-344 519h192zM634 700h192l-344 -519l-134 87zM125 84v100h615v-100h-615zM125 236v100h615v-100h-615z" />
    <glyph glyph-name="brokenbar" unicode="&#xa6;" horiz-adv-x="180" 
d="M40 220h100v-220h-100v220zM40 542h100v-220h-100v220z" />
    <glyph glyph-name="section" unicode="&#xa7;" horiz-adv-x="565" 
d="M328 489q37 -6 72.5 -17t63 -30.5t44 -47.5t16.5 -69q0 -53 -30 -89q30 -36 30 -89q0 -41 -17 -69.5t-45.5 -47t-65 -27.5t-76.5 -12q-60 -3 -124.5 4.5t-129.5 20.5l8 115q63 -14 126.5 -21.5t125.5 -2.5q9 1 20.5 3t21.5 6.5t17 12.5t7 20q0 13 -7 21t-17 13t-21 8
t-19 4l-92 15q-37 6 -72.5 17t-63 30.5t-44 48t-16.5 69.5q0 53 30 88q-30 36 -30 89q0 41 17 69.5t45.5 47t65 27.5t76.5 12q60 4 124.5 -4t129.5 -21l-8 -115q-63 14 -126.5 21.5t-125.5 2.5q-9 -1 -20.5 -2.5t-21.5 -6t-17 -12.5t-7 -21t7 -21t17 -13t21 -7.5t19 -4.5z
M328 312q13 -3 26 -5.5t26 -5.5q12 10 12 26q0 13 -7 21t-17 13t-21 7.5t-19 3.5l-92 16q-14 2 -26.5 4.5t-25.5 5.5q-12 -10 -12 -26q0 -13 7 -21t17 -13t21 -7t19 -4z" />
    <glyph glyph-name="dieresis" unicode="&#xa8;" horiz-adv-x="441" 
d="M113 555q-42 0 -63.5 26.5t-21.5 58.5t21.5 58.5t63.5 26.5t63.5 -26.5t21.5 -58.5t-21.5 -58.5t-63.5 -26.5zM329 555q-42 0 -63.5 26.5t-21.5 58.5t21.5 58.5t63.5 26.5t63.5 -26.5t21.5 -58.5t-21.5 -58.5t-63.5 -26.5z" />
    <glyph glyph-name="copyright" unicode="&#xa9;" horiz-adv-x="808" 
d="M404 -35q-82 0 -149 28t-115 77.5t-74 117.5t-26 148t26 148t74 117.5t115 77.5t149 28t149 -28t115 -77.5t74 -117.5t26 -148t-26 -148t-74 -117.5t-115 -77.5t-149 -28zM404 65q59 0 106.5 21t81 57.5t52 86t18.5 106.5t-18.5 106.5t-52 86t-81 57.5t-106.5 21
q-58 0 -106 -21t-81.5 -57.5t-52 -86t-18.5 -106.5t18.5 -106.5t52 -86t81.5 -57.5t106 -21zM211 336q0 94 51 147t145 53q40 0 79 -10t74 -28l-26 -97q-24 17 -54.5 27t-60.5 10q-48 0 -75 -26.5t-27 -75.5t27 -75.5t75 -26.5q30 0 60.5 10t54.5 27l26 -97q-35 -18 -74 -28
t-79 -10q-94 0 -145 53t-51 147z" />
    <glyph glyph-name="ordfeminine" unicode="&#xaa;" horiz-adv-x="267" 
d="M177 703h59v-226h-59v226zM207 504q-26 -19 -59 -25t-61.5 4t-48 36.5t-19.5 70.5t19.5 70t48 35.5t61.5 4t59 -24.5l-1 -50q-16 12 -37.5 18.5t-41 4t-32.5 -16t-13 -41.5t13 -41.5t32.5 -16t41 3.5t37.5 18z" />
    <glyph glyph-name="guillemotleft" unicode="&#xab;" horiz-adv-x="585" 
d="M545 101l-256 183v123l256 183v-123l-170 -121l170 -122v-123zM296 101l-256 183v123l256 183v-123l-170 -121l170 -122v-123z" />
    <glyph glyph-name="logicalnot" unicode="&#xac;" horiz-adv-x="490" 
d="M350 406h100v-215h-100v215zM40 306v100h410v-100h-410z" />
    <glyph glyph-name="registered" unicode="&#xae;" horiz-adv-x="808" 
d="M411 276h-48v-130h-101v391h186q63 0 99.5 -34t36.5 -96q0 -48 -18.5 -77.5t-56.5 -46.5l57 -137h-102zM438 354q26 0 35 16.5t9 33.5q0 16 -9 32.5t-35 16.5h-75v-99h75zM404 -35q-82 0 -149 28t-115 77.5t-74 117.5t-26 148t26 148t74 117.5t115 77.5t149 28t149 -28
t115 -77.5t74 -117.5t26 -148t-26 -148t-74 -117.5t-115 -77.5t-149 -28zM404 65q59 0 106.5 21t81 57.5t52 86t18.5 106.5t-18.5 106.5t-52 86t-81 57.5t-106.5 21q-58 0 -106 -21t-81.5 -57.5t-52 -86t-18.5 -106.5t18.5 -106.5t52 -86t81.5 -57.5t106 -21z" />
    <glyph glyph-name="macron" unicode="&#xaf;" horiz-adv-x="530" 
d="M40 600v100h450v-100h-450z" />
    <glyph glyph-name="degree" unicode="&#xb0;" horiz-adv-x="283" 
d="M29 610q0 41 30.5 66.5t82.5 25.5t83 -25.5t31 -66.5v-59q0 -41 -31 -66.5t-83 -25.5t-82.5 25.5t-30.5 66.5v59zM197 610q0 16 -13 28.5t-42 12.5t-42 -12.5t-13 -28.5v-59q0 -16 13 -28.5t42 -12.5t42 12.5t13 28.5v59z" />
    <glyph glyph-name="plusminus" unicode="&#xb1;" horiz-adv-x="380" 
d="M40 132v100h300v-100h-300zM140 396h-100v100h100v100h100v-100h100v-100h-100v-100h-100v100z" />
    <glyph glyph-name="twosuperior" unicode="&#xb2;" horiz-adv-x="269" 
d="M156 607q7 1 17.5 6t10.5 16t-11.5 15t-23.5 5q-23 2 -56.5 -3t-61.5 -16l-4 51q29 11 64 16t63 3q17 -1 33 -5t28.5 -12.5t20 -21.5t7.5 -31t-7.5 -31t-19.5 -22t-27.5 -14t-32.5 -8l-41 -7q-8 -2 -18.5 -5.5t-10.5 -14.5v-16h157v-51h-216v66q0 18 7.5 30.5t19.5 21
t28 13.5t33 8z" />
    <glyph glyph-name="threesuperior" unicode="&#xb3;" horiz-adv-x="272" 
d="M149 607q15 0 25 5t10 16q0 12 -12 17t-27 6q-20 2 -53 -1.5t-61 -12.5l-3 51q29 9 63 12.5t59 1.5q37 -2 65 -19t28 -54q0 -29 -19 -48q19 -21 19 -49q0 -37 -28 -54t-65 -19q-25 -2 -59 2t-63 12l3 52q14 -5 29.5 -8t31 -5t29.5 -2.5t24 0.5q15 1 27 6t12 17
q0 11 -10 16.5t-25 5.5h-87v52h87z" />
    <glyph glyph-name="acute" unicode="&#xb4;" horiz-adv-x="373" 
d="M66 541l-42 91l282 131l42 -91z" />
    <glyph glyph-name="paragraph" unicode="&#xb6;" horiz-adv-x="746" 
d="M277 233q-118 0 -177.5 61t-59.5 173t59.5 172.5t177.5 60.5v-467zM536 700h170v-700h-170v700zM277 700h170v-700h-170v700zM339 550v150h250v-150h-250z" />
    <glyph glyph-name="periodcentered" unicode="&#xb7;" horiz-adv-x="250" 
d="M125 267q-42 0 -63.5 26.5t-21.5 58.5t21.5 58.5t63.5 26.5t63.5 -26.5t21.5 -58.5t-21.5 -58.5t-63.5 -26.5z" />
    <glyph glyph-name="cedilla" unicode="&#xb8;" horiz-adv-x="193" 
d="M32 -119q21 0 33.5 14t14.5 33.5t-7.5 39.5t-33.5 32h70q17 -6 30.5 -23t19.5 -39t3 -46.5t-17 -45t-41.5 -33.5t-71.5 -13v81z" />
    <glyph glyph-name="onesuperior" unicode="&#xb9;" horiz-adv-x="184" 
d="M29 649v51h129v-239h-58v188h-71z" />
    <glyph glyph-name="ordmasculine" unicode="&#xba;" horiz-adv-x="376" 
d="M29 610q0 41 30.5 66.5t82.5 25.5t83 -25.5t31 -66.5v-59q0 -41 -31 -66.5t-83 -25.5t-82.5 25.5t-30.5 66.5v59zM197 610q0 16 -13 28.5t-42 12.5t-42 -12.5t-13 -28.5v-59q0 -16 13 -28.5t42 -12.5t42 12.5t13 28.5v59z" />
    <glyph glyph-name="guillemotright" unicode="&#xbb;" horiz-adv-x="585" 
d="M40 224l170 122l-170 121v123l256 -183v-123l-256 -183v123zM289 224l170 122l-170 121v123l256 -183v-123l-256 -183v123z" />
    <glyph glyph-name="onequarter" unicode="&#xbc;" horiz-adv-x="927" 
d="M41 606v94h222v-441h-100v347h-122zM786 208v165l-148 -165h148zM725 440h161v-440h-100v113h-271v95zM567 700h112l-348 -700h-112z" />
    <glyph glyph-name="onehalf" unicode="&#xbd;" horiz-adv-x="1030" 
d="M839 268q6 1 14.5 4t16 7.5t13 12t5.5 17.5q0 21 -20 29t-41 9q-20 2 -45.5 0t-52.5 -6.5t-54 -12t-51 -17.5l-6 95q25 9 53 16.5t56.5 12t56.5 6.5t52 0q29 -2 56.5 -10t49 -23.5t34.5 -39.5t13 -57t-12.5 -57t-33.5 -40.5t-48 -26t-56 -14.5l-71 -13q-6 -1 -14.5 -3
t-16 -6t-13 -10.5t-5.5 -17.5v-28h270v-95h-371v121q0 33 13 56.5t34 39.5t48 25t55 14zM41 606v94h222v-441h-100v347h-122zM567 700h112l-348 -700h-112z" />
    <glyph glyph-name="threequarters" unicode="&#xbe;" horiz-adv-x="1026" 
d="M250 527q26 0 43.5 10t17.5 30q0 22 -21 31.5t-47 11.5q-17 2 -41 1t-50.5 -4.5t-53.5 -9t-51 -14.5l-6 94q25 8 53 14t56 9t54 4t47 0q32 -2 61.5 -10.5t51.5 -25t35 -41t13 -59.5q0 -53 -33 -88q33 -36 33 -89q0 -34 -13 -58.5t-35 -41t-51.5 -25t-61.5 -10.5
q-21 -1 -47 -0.5t-54 4t-56 9t-53 13.5l6 94q24 -8 51 -14t53.5 -9t50.5 -4t41 0q26 2 47 11.5t21 31.5q0 20 -17.5 30t-43.5 10h-150v95h150zM885 208v165l-148 -165h148zM824 440h161v-440h-100v113h-271v95zM666 700h112l-348 -700h-112z" />
    <glyph glyph-name="questiondown" unicode="&#xbf;" horiz-adv-x="700" 
d="M475 481q0 -66 -22 -102t-64 -60q-29 -16 -62 -28.5t-60.5 -25t-46 -27.5t-18.5 -36q0 -15 9.5 -25.5t24 -17t33 -10t36.5 -4.5q34 -3 77 0t89 10.5t92.5 19t86.5 27.5l10 -150q-42 -15 -89.5 -26.5t-96 -19t-95.5 -10.5t-87 0q-50 3 -96 16t-80.5 37t-55 60t-20.5 85
q0 42 15 74t40.5 56t59 40.5t69.5 28.5q40 14 65.5 32t25.5 56h160zM389 701q42 0 63.5 -26.5t21.5 -58.5t-21.5 -58.5t-63.5 -26.5t-63.5 26.5t-21.5 58.5t21.5 58.5t63.5 26.5z" />
    <glyph glyph-name="Agrave" unicode="&#xc0;" horiz-adv-x="803" 
d="M10 0l266 700h251l266 -700h-182l-54 143h-311l-54 -143h-182zM500 293l-98 258l-99 -258h197zM240 872l42 91l282 -131l-42 -91z" />
    <glyph glyph-name="Aacute" unicode="&#xc1;" horiz-adv-x="803" 
d="M10 0l266 700h251l266 -700h-182l-54 143h-311l-54 -143h-182zM500 293l-98 258l-99 -258h197zM281 741l-42 91l282 131l42 -91z" />
    <glyph glyph-name="Acircumflex" unicode="&#xc2;" horiz-adv-x="803" 
d="M10 0l266 700h251l266 -700h-182l-54 143h-311l-54 -143h-182zM500 293l-98 258l-99 -258h197zM564 832l-42 -91l-122 56l-119 -56l-42 91l162 76z" />
    <glyph glyph-name="Atilde" unicode="&#xc3;" horiz-adv-x="803" 
d="M10 0l266 700h251l266 -700h-182l-54 143h-311l-54 -143h-182zM500 293l-98 258l-99 -258h197zM246 856q23 28 48.5 36.5t51.5 7t52 -9t49.5 -12t44 -1.5t35.5 22l30 -81q-23 -28 -48.5 -36.5t-51.5 -7t-52 9t-49.5 12t-44 1.5t-35.5 -22z" />
    <glyph glyph-name="Adieresis" unicode="&#xc4;" horiz-adv-x="803" 
d="M10 0l266 700h251l266 -700h-182l-54 143h-311l-54 -143h-182zM500 293l-98 258l-99 -258h197zM294 755q-42 0 -63.5 26.5t-21.5 58.5t21.5 58.5t63.5 26.5t63.5 -26.5t21.5 -58.5t-21.5 -58.5t-63.5 -26.5zM510 755q-42 0 -63.5 26.5t-21.5 58.5t21.5 58.5t63.5 26.5
t63.5 -26.5t21.5 -58.5t-21.5 -58.5t-63.5 -26.5z" />
    <glyph glyph-name="Aring" unicode="&#xc5;" horiz-adv-x="803" 
d="M10 0l266 700h251l266 -700h-182l-54 143h-311l-54 -143h-182zM500 293l-98 258l-99 -258h197zM401 741q-46 0 -77.5 19.5t-47 48.5t-16 63.5t15 63.5t47 48.5t78.5 19.5t78.5 -19.5t47 -48.5t15 -63.5t-16 -63.5t-47 -48.5t-77.5 -19.5zM401 822q26 0 38.5 16t12.5 34.5
t-12.5 34.5t-38.5 16q-25 0 -38 -16t-13 -34.5t13 -34.5t38 -16z" />
    <glyph glyph-name="AE" unicode="&#xc6;" horiz-adv-x="1261" 
d="M10 0l266 700h251l266 -700h-182l-54 143h-311l-54 -143h-182zM500 293l-98 258l-99 -258h197zM791 550v-117h371v-140h-371v-143h435v-150h-605v700h604v-150h-434z" />
    <glyph glyph-name="Ccedilla" unicode="&#xc7;" horiz-adv-x="790" 
d="M740 172l10 -150q-72 -12 -146.5 -19t-147.5 -7q-88 0 -165.5 19t-135.5 61t-91.5 109.5t-33.5 164.5t33.5 164.5t91.5 109.5t135.5 61t165.5 19q73 0 147.5 -7t146.5 -19l-10 -150q-69 12 -140 19t-141 7q-54 0 -100.5 -9t-81 -32t-54.5 -62.5t-20 -100.5t20 -100.5
t54.5 -62.5t81 -32t100.5 -9q70 0 141 7t140 19zM330 -119q21 0 33.5 14t14.5 33.5t-7.5 39.5t-33.5 32h70q17 -6 30.5 -23t19.5 -39t3 -46.5t-17 -45t-41.5 -33.5t-71.5 -13v81z" />
    <glyph glyph-name="Egrave" unicode="&#xc8;" horiz-adv-x="695" 
d="M220 550v-117h371v-140h-371v-143h435v-150h-605v700h604v-150h-434zM186 872l42 91l282 -131l-42 -91z" />
    <glyph glyph-name="Eacute" unicode="&#xc9;" horiz-adv-x="695" 
d="M220 550v-117h371v-140h-371v-143h435v-150h-605v700h604v-150h-434zM227 741l-42 91l282 131l42 -91z" />
    <glyph glyph-name="Ecircumflex" unicode="&#xca;" horiz-adv-x="695" 
d="M220 550v-117h371v-140h-371v-143h435v-150h-605v700h604v-150h-434zM510 832l-42 -91l-122 56l-119 -56l-42 91l162 76z" />
    <glyph glyph-name="Edieresis" unicode="&#xcb;" horiz-adv-x="695" 
d="M220 550v-117h371v-140h-371v-143h435v-150h-605v700h604v-150h-434zM240 755q-42 0 -63.5 26.5t-21.5 58.5t21.5 58.5t63.5 26.5t63.5 -26.5t21.5 -58.5t-21.5 -58.5t-63.5 -26.5zM456 755q-42 0 -63.5 26.5t-21.5 58.5t21.5 58.5t63.5 26.5t63.5 -26.5t21.5 -58.5
t-21.5 -58.5t-63.5 -26.5z" />
    <glyph glyph-name="Igrave" unicode="&#xcc;" horiz-adv-x="270" 
d="M50 700h170v-700h-170v700zM-27 872l42 91l282 -131l-42 -91z" />
    <glyph glyph-name="Iacute" unicode="&#xcd;" horiz-adv-x="270" 
d="M50 700h170v-700h-170v700zM15 741l-42 91l282 131l42 -91z" />
    <glyph glyph-name="Icircumflex" unicode="&#xce;" horiz-adv-x="270" 
d="M50 700h170v-700h-170v700zM297 832l-42 -91l-122 56l-119 -56l-42 91l162 76z" />
    <glyph glyph-name="Idieresis" unicode="&#xcf;" horiz-adv-x="270" 
d="M50 700h170v-700h-170v700zM27 755q-42 0 -63.5 26.5t-21.5 58.5t21.5 58.5t63.5 26.5t63.5 -26.5t21.5 -58.5t-21.5 -58.5t-63.5 -26.5zM243 755q-42 0 -63.5 26.5t-21.5 58.5t21.5 58.5t63.5 26.5t63.5 -26.5t21.5 -58.5t-21.5 -58.5t-63.5 -26.5z" />
    <glyph glyph-name="Ntilde" unicode="&#xd1;" horiz-adv-x="795" 
d="M50 700h202l323 -465v465h170v-700h-202l-323 465v-465h-170v700zM242 856q23 28 48.5 36.5t51.5 7t52 -9t49.5 -12t44 -1.5t35.5 22l30 -81q-23 -28 -48.5 -36.5t-51.5 -7t-52 9t-49.5 12t-44 1.5t-35.5 -22z" />
    <glyph glyph-name="Ograve" unicode="&#xd2;" horiz-adv-x="846" 
d="M423 146q60 0 102 15t68 42t38 64.5t12 83.5t-12 83.5t-38 64t-68 41t-102 14.5t-102 -15t-68 -42t-38 -64.5t-12 -83.5t12 -83.5t38 -64t68 -41t102 -14.5zM423 -4q-97 0 -171 25.5t-123 72t-74 112t-25 144.5t25 144.5t74 112t123 72t171 25.5q98 0 171.5 -25.5
t122.5 -72t74 -112t25 -144.5t-25 -144.5t-74 -112t-122.5 -72t-171.5 -25.5zM261 872l42 91l282 -131l-42 -91z" />
    <glyph glyph-name="Oacute" unicode="&#xd3;" horiz-adv-x="846" 
d="M423 146q60 0 102 15t68 42t38 64.5t12 83.5t-12 83.5t-38 64t-68 41t-102 14.5t-102 -15t-68 -42t-38 -64.5t-12 -83.5t12 -83.5t38 -64t68 -41t102 -14.5zM423 -4q-97 0 -171 25.5t-123 72t-74 112t-25 144.5t25 144.5t74 112t123 72t171 25.5q98 0 171.5 -25.5
t122.5 -72t74 -112t25 -144.5t-25 -144.5t-74 -112t-122.5 -72t-171.5 -25.5zM303 741l-42 91l282 131l42 -91z" />
    <glyph glyph-name="Ocircumflex" unicode="&#xd4;" horiz-adv-x="846" 
d="M423 146q60 0 102 15t68 42t38 64.5t12 83.5t-12 83.5t-38 64t-68 41t-102 14.5t-102 -15t-68 -42t-38 -64.5t-12 -83.5t12 -83.5t38 -64t68 -41t102 -14.5zM423 -4q-97 0 -171 25.5t-123 72t-74 112t-25 144.5t25 144.5t74 112t123 72t171 25.5q98 0 171.5 -25.5
t122.5 -72t74 -112t25 -144.5t-25 -144.5t-74 -112t-122.5 -72t-171.5 -25.5zM586 832l-42 -91l-122 56l-119 -56l-42 91l162 76z" />
    <glyph glyph-name="Otilde" unicode="&#xd5;" horiz-adv-x="846" 
d="M423 146q60 0 102 15t68 42t38 64.5t12 83.5t-12 83.5t-38 64t-68 41t-102 14.5t-102 -15t-68 -42t-38 -64.5t-12 -83.5t12 -83.5t38 -64t68 -41t102 -14.5zM423 -4q-97 0 -171 25.5t-123 72t-74 112t-25 144.5t25 144.5t74 112t123 72t171 25.5q98 0 171.5 -25.5
t122.5 -72t74 -112t25 -144.5t-25 -144.5t-74 -112t-122.5 -72t-171.5 -25.5zM268 856q23 28 48.5 36.5t51.5 7t52 -9t49.5 -12t44 -1.5t35.5 22l30 -81q-23 -28 -48.5 -36.5t-51.5 -7t-52 9t-49.5 12t-44 1.5t-35.5 -22z" />
    <glyph glyph-name="Odieresis" unicode="&#xd6;" horiz-adv-x="846" 
d="M423 146q60 0 102 15t68 42t38 64.5t12 83.5t-12 83.5t-38 64t-68 41t-102 14.5t-102 -15t-68 -42t-38 -64.5t-12 -83.5t12 -83.5t38 -64t68 -41t102 -14.5zM423 -4q-97 0 -171 25.5t-123 72t-74 112t-25 144.5t25 144.5t74 112t123 72t171 25.5q98 0 171.5 -25.5
t122.5 -72t74 -112t25 -144.5t-25 -144.5t-74 -112t-122.5 -72t-171.5 -25.5zM315 755q-42 0 -63.5 26.5t-21.5 58.5t21.5 58.5t63.5 26.5t63.5 -26.5t21.5 -58.5t-21.5 -58.5t-63.5 -26.5zM531 755q-42 0 -63.5 26.5t-21.5 58.5t21.5 58.5t63.5 26.5t63.5 -26.5t21.5 -58.5
t-21.5 -58.5t-63.5 -26.5z" />
    <glyph glyph-name="multiply" unicode="&#xd7;" horiz-adv-x="364" 
d="M182 284l-71 -71l-71 71l71 70l-71 71l71 71l71 -71l71 71l70 -71l-70 -71l70 -70l-70 -71z" />
    <glyph glyph-name="Oslash" unicode="&#xd8;" horiz-adv-x="846" 
d="M423 146q60 0 102 15t68 42t38 64.5t12 83.5t-12 83.5t-38 64t-68 41t-102 14.5t-102 -15t-68 -42t-38 -64.5t-12 -83.5t12 -83.5t38 -64t68 -41t102 -14.5zM423 -4q-97 0 -171 25.5t-123 72t-74 112t-25 144.5t25 144.5t74 112t123 72t171 25.5q98 0 171.5 -25.5
t122.5 -72t74 -112t25 -144.5t-25 -144.5t-74 -112t-122.5 -72t-171.5 -25.5zM565 750h112l-400 -805h-112z" />
    <glyph glyph-name="Ugrave" unicode="&#xd9;" horiz-adv-x="754" 
d="M539 700h170v-424q0 -81 -28 -135.5t-74.5 -87t-106 -46.5t-123.5 -14t-123.5 14t-106 46.5t-74.5 87t-28 135.5v424h170v-424q0 -45 14 -71t37 -40t52 -18t59 -4t59 4t52 18t37 40t14 71v424zM215 872l42 91l282 -131l-42 -91z" />
    <glyph glyph-name="Uacute" unicode="&#xda;" horiz-adv-x="754" 
d="M539 700h170v-424q0 -81 -28 -135.5t-74.5 -87t-106 -46.5t-123.5 -14t-123.5 14t-106 46.5t-74.5 87t-28 135.5v424h170v-424q0 -45 14 -71t37 -40t52 -18t59 -4t59 4t52 18t37 40t14 71v424zM257 741l-42 91l282 131l42 -91z" />
    <glyph glyph-name="Ucircumflex" unicode="&#xdb;" horiz-adv-x="754" 
d="M539 700h170v-424q0 -81 -28 -135.5t-74.5 -87t-106 -46.5t-123.5 -14t-123.5 14t-106 46.5t-74.5 87t-28 135.5v424h170v-424q0 -45 14 -71t37 -40t52 -18t59 -4t59 4t52 18t37 40t14 71v424zM540 832l-42 -91l-122 56l-119 -56l-42 91l162 76z" />
    <glyph glyph-name="Udieresis" unicode="&#xdc;" horiz-adv-x="754" 
d="M539 700h170v-424q0 -81 -28 -135.5t-74.5 -87t-106 -46.5t-123.5 -14t-123.5 14t-106 46.5t-74.5 87t-28 135.5v424h170v-424q0 -45 14 -71t37 -40t52 -18t59 -4t59 4t52 18t37 40t14 71v424zM269 755q-42 0 -63.5 26.5t-21.5 58.5t21.5 58.5t63.5 26.5t63.5 -26.5
t21.5 -58.5t-21.5 -58.5t-63.5 -26.5zM485 755q-42 0 -63.5 26.5t-21.5 58.5t21.5 58.5t63.5 26.5t63.5 -26.5t21.5 -58.5t-21.5 -58.5t-63.5 -26.5z" />
    <glyph glyph-name="Yacute" unicode="&#xdd;" horiz-adv-x="806" 
d="M318 235l-308 465h192l201 -304l201 304h192l-308 -465v-235h-170v235zM283 741l-42 91l282 131l42 -91z" />
    <glyph glyph-name="Thorn" unicode="&#xde;" horiz-adv-x="535" 
d="M163 281q42 0 73 2t50.5 9.5t29 21t9.5 36.5t-9.5 36.5t-29 21t-50.5 9.5t-73 2v150q76 0 137.5 -12t104.5 -38.5t66.5 -68t23.5 -100.5t-23.5 -100.5t-66.5 -68t-104.5 -38.5t-137.5 -12v150zM40 640h170v-580h-170v580z" />
    <glyph glyph-name="germandbls" unicode="&#xdf;" horiz-adv-x="702" 
d="M210 550v-550h-170v700h545v-150q-52 -25 -70 -46t-17 -38.5t14 -30t23 -20.5q32 -25 56 -47.5t40 -45.5t23.5 -49t7.5 -58q0 -73 -36 -117.5t-89.5 -67.5t-116 -29t-116.5 -1v148q18 -1 49.5 -1t61.5 5.5t52.5 20t22.5 41.5q0 25 -17.5 47.5t-37.5 41.5
q-29 27 -52.5 57.5t-32 62t4 64t56.5 63.5h-201z" />
    <glyph glyph-name="agrave" unicode="&#xe0;" horiz-adv-x="1323" 
d="M10 0l266 700h771l266 -700h-182l-54 143h-831l-54 -143h-182zM1020 293l-98 257h-521l-98 -257h717zM500 882l42 91l282 -131l-42 -91z" />
    <glyph glyph-name="aacute" unicode="&#xe1;" horiz-adv-x="1323" 
d="M10 0l266 700h771l266 -700h-182l-54 143h-831l-54 -143h-182zM1020 293l-98 257h-521l-98 -257h717zM541 751l-42 91l282 131l42 -91z" />
    <glyph glyph-name="acircumflex" unicode="&#xe2;" horiz-adv-x="1323" 
d="M10 0l266 700h771l266 -700h-182l-54 143h-831l-54 -143h-182zM1020 293l-98 257h-521l-98 -257h717zM824 852l-42 -91l-122 56l-119 -56l-42 91l162 76z" />
    <glyph glyph-name="atilde" unicode="&#xe3;" horiz-adv-x="1323" 
d="M10 0l266 700h771l266 -700h-182l-54 143h-831l-54 -143h-182zM1020 293l-98 257h-521l-98 -257h717zM506 846q23 28 48.5 36.5t51.5 7t52 -9t49.5 -12t44 -1.5t35.5 22l30 -81q-23 -28 -48.5 -36.5t-51.5 -7t-52 9t-49.5 12t-44 1.5t-35.5 -22z" />
    <glyph glyph-name="adieresis" unicode="&#xe4;" horiz-adv-x="1323" 
d="M10 0l266 700h771l266 -700h-182l-54 143h-831l-54 -143h-182zM1020 293l-98 257h-521l-98 -257h717zM554 755q-42 0 -63.5 26.5t-21.5 58.5t21.5 58.5t63.5 26.5t63.5 -26.5t21.5 -58.5t-21.5 -58.5t-63.5 -26.5zM770 755q-42 0 -63.5 26.5t-21.5 58.5t21.5 58.5
t63.5 26.5t63.5 -26.5t21.5 -58.5t-21.5 -58.5t-63.5 -26.5z" />
    <glyph glyph-name="aring" unicode="&#xe5;" horiz-adv-x="1323" 
d="M10 0l266 700h771l266 -700h-182l-54 143h-831l-54 -143h-182zM1020 293l-98 257h-521l-98 -257h717zM661 750q-46 0 -77.5 19.5t-47 48.5t-16 63.5t15 63.5t47 48.5t78.5 19.5t78.5 -19.5t47 -48.5t15 -63.5t-16 -63.5t-47 -48.5t-77.5 -19.5zM661 831q26 0 38.5 16
t12.5 34.5t-12.5 34.5t-38.5 16q-25 0 -38 -16t-13 -34.5t13 -34.5t38 -16z" />
    <glyph glyph-name="ae" unicode="&#xe6;" horiz-adv-x="2476" 
d="M10 0l266 700h771l266 -700h-182l-54 143h-831l-54 -143h-182zM1020 293l-98 257h-521l-98 -257h717zM1133 700h1302v-150h-1132v-117h987v-140h-987v-143h1133v-150h-1303v700z" />
    <glyph glyph-name="ccedilla" unicode="&#xe7;" horiz-adv-x="1383" 
d="M203 350q0 -61 27 -100t76.5 -61.5t118.5 -33t152 -14.5q184 -9 378.5 -1.5t377.5 32.5l10 -150q-183 -23 -376.5 -32t-378.5 0q-126 6 -229 26.5t-176 62.5t-113 108t-40 163t40 163t113 108t176 62.5t229 26.5q185 9 378.5 0t376.5 -32l-10 -150q-183 25 -377.5 32.5
t-378.5 -1.5q-83 -4 -152 -14.5t-118.5 -33t-76.5 -61.5t-27 -100zM626 -119q21 0 33.5 14t14.5 33.5t-7.5 39.5t-33.5 32h70q17 -6 30.5 -23t19.5 -39t3 -46.5t-17 -45t-41.5 -33.5t-71.5 -13v81z" />
    <glyph glyph-name="egrave" unicode="&#xe8;" 
d="M50 700h1302v-150h-1132v-117h987v-140h-987v-143h1133v-150h-1303v700zM535 882l42 91l282 -131l-42 -91z" />
    <glyph glyph-name="eacute" unicode="&#xe9;" 
d="M50 700h1302v-150h-1132v-117h987v-140h-987v-143h1133v-150h-1303v700zM576 751l-42 91l282 131l42 -91z" />
    <glyph glyph-name="ecircumflex" unicode="&#xea;" 
d="M50 700h1302v-150h-1132v-117h987v-140h-987v-143h1133v-150h-1303v700zM859 842l-42 -91l-122 56l-119 -56l-42 91l162 76z" />
    <glyph glyph-name="edieresis" unicode="&#xeb;" 
d="M50 700h1302v-150h-1132v-117h987v-140h-987v-143h1133v-150h-1303v700zM589 755q-42 0 -63.5 26.5t-21.5 58.5t21.5 58.5t63.5 26.5t63.5 -26.5t21.5 -58.5t-21.5 -58.5t-63.5 -26.5zM805 755q-42 0 -63.5 26.5t-21.5 58.5t21.5 58.5t63.5 26.5t63.5 -26.5t21.5 -58.5
t-21.5 -58.5t-63.5 -26.5z" />
    <glyph glyph-name="igrave" unicode="&#xec;" horiz-adv-x="246" 
d="M38 700h170v-700h-170v700zM-39 882l42 91l282 -131l-42 -91z" />
    <glyph glyph-name="iacute" unicode="&#xed;" horiz-adv-x="246" 
d="M38 700h170v-700h-170v700zM3 751l-42 91l282 131l42 -91z" />
    <glyph glyph-name="icircumflex" unicode="&#xee;" horiz-adv-x="246" 
d="M38 700h170v-700h-170v700zM285 842l-42 -91l-122 56l-119 -56l-42 91l162 76z" />
    <glyph glyph-name="idieresis" unicode="&#xef;" horiz-adv-x="246" 
d="M38 700h170v-700h-170v700zM15 755q-42 0 -63.5 26.5t-21.5 58.5t21.5 58.5t63.5 26.5t63.5 -26.5t21.5 -58.5t-21.5 -58.5t-63.5 -26.5zM231 755q-42 0 -63.5 26.5t-21.5 58.5t21.5 58.5t63.5 26.5t63.5 -26.5t21.5 -58.5t-21.5 -58.5t-63.5 -26.5z" />
    <glyph glyph-name="ntilde" unicode="&#xf1;" horiz-adv-x="1402" 
d="M50 700h170v-700h-170v700zM1182 700h170v-700h-170v700zM1294 0h-157l-1008 594v106h136l1029 -607v-93zM546 836q23 28 48.5 36.5t51.5 7t52 -9t49.5 -12t44 -1.5t35.5 22l30 -81q-23 -28 -48.5 -36.5t-51.5 -7t-52 9t-49.5 12t-44 1.5t-35.5 -22z" />
    <glyph glyph-name="ograve" unicode="&#xf2;" horiz-adv-x="1363" 
d="M203 350q0 -52 21.5 -88t57.5 -59.5t84 -37t102 -19.5t110 -7.5t108 -1.5t108 1.5t110 7.5t102 19.5t84 37t57.5 59.5t21.5 88t-21.5 88t-57.5 59.5t-84 37t-102 19.5t-110 7.5t-108 1.5t-108 -1.5t-110 -7.5t-102 -19.5t-84 -37t-57.5 -59.5t-21.5 -88zM30 350
q0 82 28 140.5t75.5 99t112 64.5t137 37.5t150.5 17.5t153 4t153 -4t150.5 -17.5t137 -37.5t112 -64.5t75.5 -99t28 -140.5t-28 -140.5t-75.5 -99t-112 -64.5t-137 -37.5t-150.5 -17.5t-153 -4t-153 4t-150.5 17.5t-137 37.5t-112 64.5t-75.5 99t-28 140.5zM520 882l42 91
l282 -131l-42 -91z" />
    <glyph glyph-name="oacute" unicode="&#xf3;" horiz-adv-x="1363" 
d="M203 350q0 -52 21.5 -88t57.5 -59.5t84 -37t102 -19.5t110 -7.5t108 -1.5t108 1.5t110 7.5t102 19.5t84 37t57.5 59.5t21.5 88t-21.5 88t-57.5 59.5t-84 37t-102 19.5t-110 7.5t-108 1.5t-108 -1.5t-110 -7.5t-102 -19.5t-84 -37t-57.5 -59.5t-21.5 -88zM30 350
q0 82 28 140.5t75.5 99t112 64.5t137 37.5t150.5 17.5t153 4t153 -4t150.5 -17.5t137 -37.5t112 -64.5t75.5 -99t28 -140.5t-28 -140.5t-75.5 -99t-112 -64.5t-137 -37.5t-150.5 -17.5t-153 -4t-153 4t-150.5 17.5t-137 37.5t-112 64.5t-75.5 99t-28 140.5zM561 755l-42 91
l282 131l42 -91z" />
    <glyph glyph-name="ocircumflex" unicode="&#xf4;" horiz-adv-x="1363" 
d="M203 350q0 -52 21.5 -88t57.5 -59.5t84 -37t102 -19.5t110 -7.5t108 -1.5t108 1.5t110 7.5t102 19.5t84 37t57.5 59.5t21.5 88t-21.5 88t-57.5 59.5t-84 37t-102 19.5t-110 7.5t-108 1.5t-108 -1.5t-110 -7.5t-102 -19.5t-84 -37t-57.5 -59.5t-21.5 -88zM30 350
q0 82 28 140.5t75.5 99t112 64.5t137 37.5t150.5 17.5t153 4t153 -4t150.5 -17.5t137 -37.5t112 -64.5t75.5 -99t28 -140.5t-28 -140.5t-75.5 -99t-112 -64.5t-137 -37.5t-150.5 -17.5t-153 -4t-153 4t-150.5 17.5t-137 37.5t-112 64.5t-75.5 99t-28 140.5zM844 842l-42 -91
l-122 56l-119 -56l-42 91l162 76z" />
    <glyph glyph-name="otilde" unicode="&#xf5;" horiz-adv-x="1363" 
d="M203 350q0 -52 21.5 -88t57.5 -59.5t84 -37t102 -19.5t110 -7.5t108 -1.5t108 1.5t110 7.5t102 19.5t84 37t57.5 59.5t21.5 88t-21.5 88t-57.5 59.5t-84 37t-102 19.5t-110 7.5t-108 1.5t-108 -1.5t-110 -7.5t-102 -19.5t-84 -37t-57.5 -59.5t-21.5 -88zM30 350
q0 82 28 140.5t75.5 99t112 64.5t137 37.5t150.5 17.5t153 4t153 -4t150.5 -17.5t137 -37.5t112 -64.5t75.5 -99t28 -140.5t-28 -140.5t-75.5 -99t-112 -64.5t-137 -37.5t-150.5 -17.5t-153 -4t-153 4t-150.5 17.5t-137 37.5t-112 64.5t-75.5 99t-28 140.5zM526 836
q23 28 48.5 36.5t51.5 7t52 -9t49.5 -12t44 -1.5t35.5 22l30 -81q-23 -28 -48.5 -36.5t-51.5 -7t-52 9t-49.5 12t-44 1.5t-35.5 -22z" />
    <glyph glyph-name="odieresis" unicode="&#xf6;" horiz-adv-x="1363" 
d="M203 350q0 -52 21.5 -88t57.5 -59.5t84 -37t102 -19.5t110 -7.5t108 -1.5t108 1.5t110 7.5t102 19.5t84 37t57.5 59.5t21.5 88t-21.5 88t-57.5 59.5t-84 37t-102 19.5t-110 7.5t-108 1.5t-108 -1.5t-110 -7.5t-102 -19.5t-84 -37t-57.5 -59.5t-21.5 -88zM30 350
q0 82 28 140.5t75.5 99t112 64.5t137 37.5t150.5 17.5t153 4t153 -4t150.5 -17.5t137 -37.5t112 -64.5t75.5 -99t28 -140.5t-28 -140.5t-75.5 -99t-112 -64.5t-137 -37.5t-150.5 -17.5t-153 -4t-153 4t-150.5 17.5t-137 37.5t-112 64.5t-75.5 99t-28 140.5zM574 755
q-42 0 -63.5 26.5t-21.5 58.5t21.5 58.5t63.5 26.5t63.5 -26.5t21.5 -58.5t-21.5 -58.5t-63.5 -26.5zM790 755q-42 0 -63.5 26.5t-21.5 58.5t21.5 58.5t63.5 26.5t63.5 -26.5t21.5 -58.5t-21.5 -58.5t-63.5 -26.5z" />
    <glyph glyph-name="divide" unicode="&#xf7;" horiz-adv-x="330" 
d="M165 367q-42 0 -63.5 26.5t-21.5 58.5t21.5 58.5t63.5 26.5t63.5 -26.5t21.5 -58.5t-21.5 -58.5t-63.5 -26.5zM165 -3q-42 0 -63.5 26.5t-21.5 58.5t21.5 58.5t63.5 26.5t63.5 -26.5t21.5 -58.5t-21.5 -58.5t-63.5 -26.5zM40 217v100h250v-100h-250z" />
    <glyph glyph-name="oslash" unicode="&#xf8;" horiz-adv-x="1371" 
d="M203 350q0 -52 21.5 -88t57.5 -59.5t84 -37t102 -19.5t110 -7.5t108 -1.5t108 1.5t110 7.5t102 19.5t84 37t57.5 59.5t21.5 88t-21.5 88t-57.5 59.5t-84 37t-102 19.5t-110 7.5t-108 1.5t-108 -1.5t-110 -7.5t-102 -19.5t-84 -37t-57.5 -59.5t-21.5 -88zM30 350
q0 82 28 140.5t75.5 99t112 64.5t137 37.5t150.5 17.5t153 4t153 -4t150.5 -17.5t137 -37.5t112 -64.5t75.5 -99t28 -140.5t-28 -140.5t-75.5 -99t-112 -64.5t-137 -37.5t-150.5 -17.5t-153 -4t-153 4t-150.5 17.5t-137 37.5t-112 64.5t-75.5 99t-28 140.5zM830 750h112
l-400 -805h-112z" />
    <glyph glyph-name="ugrave" unicode="&#xf9;" 
d="M1178 700h170v-424h-170v424zM377 -7v150h639v-150h-639zM1016 143q30 0 59 4t52 18t37 40t14 71h170q0 -81 -28 -135.5t-74.5 -87t-106 -46.5t-123.5 -14v150zM45 700h170v-424h-170v424zM377 -7q-64 0 -123.5 14t-106 46.5t-74.5 87t-28 135.5h170q0 -45 14 -71t37 -40
t52 -18t59 -4v-150zM535 882l42 91l282 -131l-42 -91z" />
    <glyph glyph-name="uacute" unicode="&#xfa;" 
d="M1178 700h170v-424h-170v424zM377 -7v150h639v-150h-639zM1016 143q30 0 59 4t52 18t37 40t14 71h170q0 -81 -28 -135.5t-74.5 -87t-106 -46.5t-123.5 -14v150zM45 700h170v-424h-170v424zM377 -7q-64 0 -123.5 14t-106 46.5t-74.5 87t-28 135.5h170q0 -45 14 -71t37 -40
t52 -18t59 -4v-150zM576 752l-42 91l282 131l42 -91z" />
    <glyph glyph-name="ucircumflex" unicode="&#xfb;" 
d="M1178 700h170v-424h-170v424zM377 -7v150h639v-150h-639zM1016 143q30 0 59 4t52 18t37 40t14 71h170q0 -81 -28 -135.5t-74.5 -87t-106 -46.5t-123.5 -14v150zM45 700h170v-424h-170v424zM377 -7q-64 0 -123.5 14t-106 46.5t-74.5 87t-28 135.5h170q0 -45 14 -71t37 -40
t52 -18t59 -4v-150zM859 842l-42 -91l-122 56l-119 -56l-42 91l162 76z" />
    <glyph glyph-name="udieresis" unicode="&#xfc;" 
d="M1178 700h170v-424h-170v424zM377 -7v150h639v-150h-639zM1016 143q30 0 59 4t52 18t37 40t14 71h170q0 -81 -28 -135.5t-74.5 -87t-106 -46.5t-123.5 -14v150zM45 700h170v-424h-170v424zM377 -7q-64 0 -123.5 14t-106 46.5t-74.5 87t-28 135.5h170q0 -45 14 -71t37 -40
t52 -18t59 -4v-150zM589 755q-42 0 -63.5 26.5t-21.5 58.5t21.5 58.5t63.5 26.5t63.5 -26.5t21.5 -58.5t-21.5 -58.5t-63.5 -26.5zM805 755q-42 0 -63.5 26.5t-21.5 58.5t21.5 58.5t63.5 26.5t63.5 -26.5t21.5 -58.5t-21.5 -58.5t-63.5 -26.5z" />
    <glyph glyph-name="yacute" unicode="&#xfd;" horiz-adv-x="1358" 
d="M1067 700h281l-584 -444l-125 109zM719 365l-125 -109l-584 444h281zM594 365h170v-365h-170v365zM559 751l-42 91l282 131l42 -91z" />
    <glyph glyph-name="thorn" unicode="&#xfe;" horiz-adv-x="535" 
d="M40 700h170v-700h-170v700zM163 261q85 0 123.5 21.5t38.5 67.5t-38.5 67.5t-123.5 21.5v150q76 0 137.5 -15.5t104.5 -45.5t66.5 -74.5t23.5 -103.5t-23.5 -103.5t-66.5 -74.5t-104.5 -45.5t-137.5 -15.5v150z" />
    <glyph glyph-name="ydieresis" unicode="&#xff;" horiz-adv-x="1358" 
d="M1067 700h281l-584 -444l-125 109zM719 365l-125 -109l-584 444h281zM594 365h170v-365h-170v365zM571 755q-42 0 -63.5 26.5t-21.5 58.5t21.5 58.5t63.5 26.5t63.5 -26.5t21.5 -58.5t-21.5 -58.5t-63.5 -26.5zM787 755q-42 0 -63.5 26.5t-21.5 58.5t21.5 58.5t63.5 26.5
t63.5 -26.5t21.5 -58.5t-21.5 -58.5t-63.5 -26.5z" />
    <glyph glyph-name="dotlessi" unicode="&#x131;" horiz-adv-x="250" 
d="M40 700h170v-700h-170v700z" />
    <glyph glyph-name="Lslash" unicode="&#x141;" horiz-adv-x="709" 
d="M50 700h170v-550h454v-150h-624v700zM218 306v100h250v-100h-250z" />
    <glyph glyph-name="lslash" unicode="&#x142;" horiz-adv-x="1388" 
d="M50 700h170v-700h-170v700zM174 0v150h1179v-150h-1179zM569 306v100h250v-100h-250z" />
    <glyph glyph-name="OE" unicode="&#x152;" horiz-adv-x="1297" 
d="M423 146q60 0 102 15t68 42t38 64.5t12 83.5t-12 83.5t-38 64t-68 41t-102 14.5t-102 -15t-68 -42t-38 -64.5t-12 -83.5t12 -83.5t38 -64t68 -41t102 -14.5zM423 -4q-97 0 -171 25.5t-123 72t-74 112t-25 144.5t25 144.5t74 112t123 72t171 25.5q98 0 171.5 -25.5
t122.5 -72t74 -112t25 -144.5t-25 -144.5t-74 -112t-122.5 -72t-171.5 -25.5zM830 550v-117h371v-140h-371v-143h435v-150h-605v700h604v-150h-434z" />
    <glyph glyph-name="oe" unicode="&#x153;" horiz-adv-x="2517" 
d="M203 350q0 -52 21.5 -88t57.5 -59.5t84 -37t102 -19.5t110 -7.5t108 -1.5t108 1.5t110 7.5t102 19.5t84 37t57.5 59.5t21.5 88t-21.5 88t-57.5 59.5t-84 37t-102 19.5t-110 7.5t-108 1.5t-108 -1.5t-110 -7.5t-102 -19.5t-84 -37t-57.5 -59.5t-21.5 -88zM30 350
q0 82 28 140.5t75.5 99t112 64.5t137 37.5t150.5 17.5t153 4t153 -4t150.5 -17.5t137 -37.5t112 -64.5t75.5 -99t28 -140.5t-28 -140.5t-75.5 -99t-112 -64.5t-137 -37.5t-150.5 -17.5t-153 -4t-153 4t-150.5 17.5t-137 37.5t-112 64.5t-75.5 99t-28 140.5zM1164 700h1302
v-150h-1132v-117h987v-140h-987v-143h1133v-150h-1303v700z" />
    <glyph glyph-name="Scaron" unicode="&#x160;" horiz-adv-x="690" 
d="M405 416q48 -8 94 -22.5t82 -39.5t57.5 -62t21.5 -90t-22 -90t-59 -61t-85 -36.5t-100 -15.5q-78 -5 -161.5 5t-168.5 27l10 150q81 -18 164 -27.5t164 -3.5q12 1 26.5 3.5t28 8.5t22.5 16.5t9 26.5q0 17 -9 27.5t-22 17t-27 9.5t-25 5l-120 20q-48 8 -94 22.5t-82 39.5
t-57.5 62t-21.5 90t22 90t59 61t85 36.5t100 15.5q78 5 161.5 -5t168.5 -27l-10 -150q-81 18 -164 27.5t-164 3.5q-12 -1 -26.5 -3.5t-28 -8.5t-22.5 -16t-9 -27q0 -16 9 -27t22 -17.5t27.5 -9.5t24.5 -5zM345 741l-162 76l42 91l119 -56l122 56l42 -91z" />
    <glyph glyph-name="scaron" unicode="&#x161;" horiz-adv-x="1329" 
d="M850 143q56 2 105 4t85.5 8t58 18.5t21.5 36.5q0 18 -14 28.5t-49.5 17t-95.5 9.5t-152 6q-25 1 -63.5 2t-77.5 2t-73 2t-50 1q-135 4 -232.5 15.5t-160 35t-92.5 61.5t-30 95q0 56 28 95.5t86.5 66.5t148.5 41.5t215 19.5q84 3 180.5 2t199 -7t207.5 -16.5t204 -27.5
l-10 -151q-184 32 -390 45t-420 4q-55 -2 -104.5 -4t-86 -8t-58 -18.5t-21.5 -36.5q0 -18 14 -28.5t49.5 -17t95.5 -9.5t152 -6q26 -1 64 -2t77 -2t73 -2t50 -1q135 -4 232.5 -15.5t160 -35t92.5 -61.5t30 -95q0 -55 -28 -95t-86.5 -67t-148.5 -41.5t-215 -19.5
q-84 -3 -180.5 -2t-199 7t-207.5 17t-204 27l10 151q184 -32 390 -45t420 -4zM664 751l-162 76l42 91l119 -56l122 56l42 -91z" />
    <glyph glyph-name="Ydieresis" unicode="&#x178;" horiz-adv-x="806" 
d="M318 235l-308 465h192l201 -304l201 304h192l-308 -465v-235h-170v235zM295 755q-42 0 -63.5 26.5t-21.5 58.5t21.5 58.5t63.5 26.5t63.5 -26.5t21.5 -58.5t-21.5 -58.5t-63.5 -26.5zM511 755q-42 0 -63.5 26.5t-21.5 58.5t21.5 58.5t63.5 26.5t63.5 -26.5t21.5 -58.5
t-21.5 -58.5t-63.5 -26.5z" />
    <glyph glyph-name="Zcaron" unicode="&#x17d;" horiz-adv-x="714" 
d="M279 150h395v-150h-634v150l395 400h-395v150h634v-150zM357 741l-162 76l42 91l119 -56l122 56l42 -91z" />
    <glyph glyph-name="zcaron" unicode="&#x17e;" horiz-adv-x="1384" 
d="M40 550v150h1303v-150h-1303zM928 550h415l-888 -400h-415zM40 0v150h1304v-150h-1304zM692 751l-162 76l42 91l119 -56l122 56l42 -91z" />
    <glyph glyph-name="circumflex" unicode="&#x2c6;" horiz-adv-x="418" 
d="M349 632l-42 -91l-122 56l-119 -56l-42 91l162 76z" />
    <glyph glyph-name="caron" unicode="&#x2c7;" horiz-adv-x="418" 
d="M186 541l-162 76l42 91l119 -56l122 56l42 -91z" />
    <glyph glyph-name="breve" unicode="&#x2d8;" horiz-adv-x="383" 
d="M30 568q0 44 24 73t60 43.5t78 14.5t78 -14.5t60 -44t24 -73.5h-89q0 17 -11 28t-27 17t-35 6t-35 -5.5t-27 -16.5t-11 -28h-89z" />
    <glyph glyph-name="dotaccent" unicode="&#x2d9;" horiz-adv-x="212" 
d="M107 530q-42 0 -63.5 26.5t-21.5 58.5t21.5 58.5t63.5 26.5t63.5 -26.5t21.5 -58.5t-21.5 -58.5t-63.5 -26.5z" />
    <glyph glyph-name="ring" unicode="&#x2da;" horiz-adv-x="319" 
d="M159 510q-46 0 -77.5 19.5t-47 48.5t-16 63.5t15 63.5t47 48.5t78.5 19.5t78.5 -19.5t47 -48.5t15 -63.5t-16 -63.5t-47 -48.5t-77.5 -19.5zM159 591q26 0 38.5 16t12.5 34.5t-12.5 34.5t-38.5 16q-25 0 -38 -16t-13 -34.5t13 -34.5t38 -16z" />
    <glyph glyph-name="ogonek" unicode="&#x2db;" horiz-adv-x="195" 
d="M163 -200q-44 0 -71.5 13t-41.5 33.5t-17 45t3 46.5t19.5 39t30.5 23h70q-24 -12 -33.5 -32t-7.5 -39.5t14.5 -33.5t33.5 -14v-81z" />
    <glyph glyph-name="tilde" unicode="&#x2dc;" horiz-adv-x="372" 
d="M26 656q23 28 48.5 36.5t51.5 7t52 -9t49.5 -12t44 -1.5t35.5 22l30 -81q-23 -28 -48.5 -36.5t-51.5 -7t-52 9t-49.5 12t-44 1.5t-35.5 -22z" />
    <glyph glyph-name="hungarumlaut" unicode="&#x2dd;" horiz-adv-x="679" 
d="M374 541l-42 91l282 131l42 -91zM66 541l-42 91l282 131l42 -91z" />
    <glyph glyph-name="uni03BC" unicode="&#x3bc;" horiz-adv-x="623" 
d="M196 539q17 17 34 21.5t34.5 2t35 -8.5t35.5 -9.5t37 -1t40 16.5v-80q-17 -17 -34 -21.5t-34.5 -2t-35 8.5t-35.5 9.5t-37.5 1t-39.5 -16.5v80z" />
    <glyph glyph-name="endash" unicode="&#x2013;" horiz-adv-x="330" 
d="M40 306v100h250v-100h-250z" />
    <glyph glyph-name="emdash" unicode="&#x2014;" horiz-adv-x="530" 
d="M40 306v100h450v-100h-450z" />
    <glyph glyph-name="quoteleft" unicode="&#x2018;" horiz-adv-x="201" 
d="M174 480h-150l50 220h100v-220z" />
    <glyph glyph-name="quoteright" unicode="&#x2019;" horiz-adv-x="197" 
d="M24 700h150l-50 -220h-100v220z" />
    <glyph glyph-name="quotesinglbase" unicode="&#x201a;" horiz-adv-x="203" 
d="M28 190h150l-50 -220h-100v220z" />
    <glyph glyph-name="quotedblleft" unicode="&#x201c;" horiz-adv-x="400" 
d="M374 480h-150l50 220h100v-220zM174 480h-150l50 220h100v-220z" />
    <glyph glyph-name="quotedblright" unicode="&#x201d;" horiz-adv-x="397" 
d="M224 700h150l-50 -220h-100v220zM24 700h150l-50 -220h-100v220z" />
    <glyph glyph-name="quotedblbase" unicode="&#x201e;" horiz-adv-x="403" 
d="M228 190h150l-50 -220h-100v220zM28 190h150l-50 -220h-100v220z" />
    <glyph glyph-name="dagger" unicode="&#x2020;" horiz-adv-x="380" 
d="M140 380h-100v100h100v100h100v-100h100v-100h-100v-311h-100v311z" />
    <glyph glyph-name="daggerdbl" unicode="&#x2021;" horiz-adv-x="380" 
d="M140 130h-100v100h100v200h-100v100h100v100h100v-100h100v-100h-100v-200h100v-100h-100v-100h-100v100z" />
    <glyph glyph-name="bullet" unicode="&#x2022;" horiz-adv-x="250" 
d="M125 267q-42 0 -63.5 26.5t-21.5 58.5t21.5 58.5t63.5 26.5t63.5 -26.5t21.5 -58.5t-21.5 -58.5t-63.5 -26.5z" />
    <glyph glyph-name="ellipsis" unicode="&#x2026;" horiz-adv-x="728" 
d="M603 -5q-42 0 -63.5 26.5t-21.5 58.5t21.5 58.5t63.5 26.5t63.5 -26.5t21.5 -58.5t-21.5 -58.5t-63.5 -26.5zM125 -5q-42 0 -63.5 26.5t-21.5 58.5t21.5 58.5t63.5 26.5t63.5 -26.5t21.5 -58.5t-21.5 -58.5t-63.5 -26.5zM364 -5q-42 0 -63.5 26.5t-21.5 58.5t21.5 58.5
t63.5 26.5t63.5 -26.5t21.5 -58.5t-21.5 -58.5t-63.5 -26.5z" />
    <glyph glyph-name="perthousand" unicode="&#x2030;" horiz-adv-x="1535" 
d="M1104 274q0 37 13.5 68.5t39 54t61.5 35t81 12.5t81.5 -12.5t62 -35t39 -54t13.5 -68.5v-108q0 -37 -13.5 -68.5t-39 -54t-62 -35t-81.5 -12.5t-81 12.5t-61.5 35t-39 54t-13.5 68.5v108zM1395 274q0 29 -22.5 52t-73.5 23q-50 0 -72.5 -23t-22.5 -52v-108
q0 -29 22.5 -52t72.5 -23q51 0 73.5 23t22.5 52v108zM665 700h112l-348 -700h-112zM41 534q0 37 13.5 68.5t39 54t61.5 35t81 12.5t81.5 -12.5t62 -35t39 -54t13.5 -68.5v-108q0 -37 -13.5 -68.5t-39 -54t-62 -35t-81.5 -12.5t-81 12.5t-61.5 35t-39 54t-13.5 68.5v108z
M332 534q0 29 -22.5 52t-73.5 23q-50 0 -72.5 -23t-22.5 -52v-108q0 -29 22.5 -52t72.5 -23q51 0 73.5 23t22.5 52v108zM661 274q0 37 13.5 68.5t39 54t61.5 35t81 12.5t81.5 -12.5t62 -35t39 -54t13.5 -68.5v-108q0 -37 -13.5 -68.5t-39 -54t-62 -35t-81.5 -12.5t-81 12.5
t-61.5 35t-39 54t-13.5 68.5v108zM952 274q0 29 -22.5 52t-73.5 23q-50 0 -72.5 -23t-22.5 -52v-108q0 -29 22.5 -52t72.5 -23q51 0 73.5 23t22.5 52v108z" />
    <glyph glyph-name="guilsinglleft" unicode="&#x2039;" horiz-adv-x="336" 
d="M296 590v-123l-256 -183v123zM40 284v123l256 -183v-123z" />
    <glyph glyph-name="guilsinglright" unicode="&#x203a;" horiz-adv-x="336" 
d="M296 407v-123l-256 183v123zM40 101v123l256 183v-123z" />
    <glyph glyph-name="fraction" unicode="&#x2044;" horiz-adv-x="540" 
d="M388 700h112l-348 -700h-112z" />
    <glyph glyph-name="Euro" unicode="&#x20ac;" horiz-adv-x="785" 
d="M40 377v100h595v-100h-595zM40 224v100h595v-100h-595zM129 350q0 97 33.5 164.5t91.5 109.5t135.5 61t165.5 19q48 0 95 -3t95 -8l-12 -150q-44 5 -88 8t-87 3q-54 0 -100.5 -9t-81 -32t-54.5 -62.5t-20 -100.5t20 -100.5t54.5 -62.5t81 -32t100.5 -9q43 0 87 3t88 8
l12 -150q-48 -5 -95 -8t-95 -3q-88 0 -165.5 19t-135.5 61t-91.5 109.5t-33.5 164.5z" />
    <glyph glyph-name="trademark" unicode="&#x2122;" horiz-adv-x="719" 
d="M340 700h93l77 -157l76 157h93v-281h-69v184l-64 -132h-73l-64 132v-184h-69v281zM216 640v-221h-68v221h-108v60h283v-60h-107z" />
    <glyph glyph-name="minus" unicode="&#x2212;" horiz-adv-x="330" 
d="M40 306v100h250v-100h-250z" />
    </font>
</defs>
</svg>
